<?xml version="1.0" encoding="UTF-8" standalone="no"?>
<!DOCTYPE svg PUBLIC "-//W3C//DTD SVG 1.1//EN"
 "http://www.w3.org/Graphics/SVG/1.1/DTD/svg11.dtd">
<!-- Generated by graphviz version 2.43.0 (0)
 -->
<!-- Title: opp Pages: 1 -->
<svg width="1060pt" height="82pt"
 viewBox="0.00 0.00 1060.00 82.00" xmlns="http://www.w3.org/2000/svg" xmlns:xlink="http://www.w3.org/1999/xlink">
<g id="graph0" class="graph" transform="scale(1 1) rotate(0) translate(4 78)">
<title>opp</title>
<polygon fill="transparent" stroke="transparent" points="-4,4 -4,-78 1056,-78 1056,4 -4,4"/>
<!-- Florasat -->
<g id="node1" class="node">
<title>Florasat</title>
<g id="a_node1"><a xlink:href="Florasat.Florasat.html" xlink:title="Network Florasat" target="_parent">
<polygon fill="#9090ff" stroke="black" points="467.5,-74 411.5,-74 411.5,-55 467.5,-55 467.5,-74"/>
<text text-anchor="middle" x="439.5" y="-62" font-family="Helvetica,sans-Serif" font-size="10.00">Florasat</text>
</a>
</g>
</g>
<!-- Terminal -->
<g id="node2" class="node">
<title>Terminal</title>
<g id="a_node2"><a xlink:href="Nodes._10_Terminal.Terminal.html" xlink:title="Compound Module Terminal" target="_parent">
<polygon fill="#fffcaf" stroke="black" points="59,-19 0,-19 0,0 59,0 59,-19"/>
<text text-anchor="middle" x="29.5" y="-7" font-family="Helvetica,sans-Serif" font-size="10.00">Terminal</text>
</a>
</g>
</g>
<!-- Florasat&#45;&gt;Terminal -->
<g id="edge1" class="edge">
<title>Florasat&#45;&gt;Terminal</title>
<path fill="none" stroke="black" d="M411.36,-61.11C350.62,-55.75 202.55,-41.56 69.29,-19.16"/>
<polygon fill="black" stroke="black" points="69.76,-15.69 59.31,-17.47 68.59,-22.6 69.76,-15.69"/>
</g>
<!-- Satellite -->
<g id="node3" class="node">
<title>Satellite</title>
<g id="a_node3"><a xlink:href="Nodes._20_Satellite.Satellite.html" xlink:title="Compound Module Satellite" target="_parent">
<polygon fill="#fffcaf" stroke="black" points="134,-19 77,-19 77,0 134,0 134,-19"/>
<text text-anchor="middle" x="105.5" y="-7" font-family="Helvetica,sans-Serif" font-size="10.00">Satellite</text>
</a>
</g>
</g>
<!-- Florasat&#45;&gt;Satellite -->
<g id="edge2" class="edge">
<title>Florasat&#45;&gt;Satellite</title>
<path fill="none" stroke="black" d="M411.12,-59.99C359.78,-53.48 247.88,-38.56 144.15,-19.2"/>
<polygon fill="black" stroke="black" points="144.61,-15.72 134.14,-17.31 143.32,-22.6 144.61,-15.72"/>
</g>
<!-- Ipv4NetworkConfigurator -->
<g id="node4" class="node">
<title>Ipv4NetworkConfigurator</title>
<g id="a_node4"><a xlink:href="../../../inet4.3/doc/neddoc/inet.networklayer.configurator.ipv4.Ipv4NetworkConfigurator.html" xlink:title="Simple Module Ipv4NetworkConfigurator" target="_parent">
<polygon fill="#fffcaf" stroke="black" points="291,-19 152,-19 152,0 291,0 291,-19"/>
<text text-anchor="middle" x="221.5" y="-7" font-family="Helvetica,sans-Serif" font-size="10.00">Ipv4NetworkConfigurator</text>
</a>
</g>
</g>
<!-- Florasat&#45;&gt;Ipv4NetworkConfigurator -->
<g id="edge3" class="edge">
<title>Florasat&#45;&gt;Ipv4NetworkConfigurator</title>
<path fill="none" stroke="black" d="M411.45,-56.68C374.75,-47.76 310,-32.02 266.43,-21.42"/>
<polygon fill="black" stroke="black" points="267.2,-18.01 256.65,-19.05 265.54,-24.81 267.2,-18.01"/>
</g>
<!-- Station -->
<g id="node5" class="node">
<title>Station</title>
<g id="a_node5"><a xlink:href="Nodes._30_Station.Station.html" xlink:title="Compound Module Station" target="_parent">
<polygon fill="#fffcaf" stroke="black" points="363.5,-19 309.5,-19 309.5,0 363.5,0 363.5,-19"/>
<text text-anchor="middle" x="336.5" y="-7" font-family="Helvetica,sans-Serif" font-size="10.00">Station</text>
</a>
</g>
</g>
<!-- Florasat&#45;&gt;Station -->
<g id="edge4" class="edge">
<title>Florasat&#45;&gt;Station</title>
<path fill="none" stroke="black" d="M422.95,-54.98C406.61,-46.57 381.37,-33.59 362.37,-23.81"/>
<polygon fill="black" stroke="black" points="363.84,-20.63 353.35,-19.17 360.64,-26.86 363.84,-20.63"/>
</g>
<!-- IntegratedVisualizer -->
<g id="node6" class="node">
<title>IntegratedVisualizer</title>
<g id="a_node6"><a xlink:href="../../../inet4.3/doc/neddoc/inet.visualizer.common.IntegratedVisualizer.html" xlink:title="Compound Module IntegratedVisualizer" target="_parent">
<polygon fill="#fffcaf" stroke="black" points="497,-19 382,-19 382,0 497,0 497,-19"/>
<text text-anchor="middle" x="439.5" y="-7" font-family="Helvetica,sans-Serif" font-size="10.00">IntegratedVisualizer</text>
</a>
</g>
</g>
<!-- Florasat&#45;&gt;IntegratedVisualizer -->
<g id="edge5" class="edge">
<title>Florasat&#45;&gt;IntegratedVisualizer</title>
<path fill="none" stroke="black" d="M439.5,-54.75C439.5,-47.8 439.5,-37.85 439.5,-29.13"/>
<polygon fill="black" stroke="black" points="443,-29.09 439.5,-19.09 436,-29.09 443,-29.09"/>
</g>
<!-- LoRaMedium -->
<g id="node7" class="node">
<title>LoRaMedium</title>
<g id="a_node7"><a xlink:href="Global.Medium.DSL.LoRaMedium.html" xlink:title="Compound Module LoRaMedium" target="_parent">
<polygon fill="#fffcaf" stroke="black" points="595.5,-19 515.5,-19 515.5,0 595.5,0 595.5,-19"/>
<text text-anchor="middle" x="555.5" y="-7" font-family="Helvetica,sans-Serif" font-size="10.00">LoRaMedium</text>
</a>
</g>
</g>
<!-- Florasat&#45;&gt;LoRaMedium -->
<g id="edge6" class="edge">
<title>Florasat&#45;&gt;LoRaMedium</title>
<path fill="none" stroke="black" d="M458.14,-54.98C476.8,-46.46 505.75,-33.23 527.24,-23.41"/>
<polygon fill="black" stroke="black" points="528.88,-26.51 536.52,-19.17 525.97,-20.14 528.88,-26.51"/>
</g>
<!-- ConstellationTopologyControl -->
<g id="node8" class="node">
<title>ConstellationTopologyControl</title>
<g id="a_node8"><a xlink:href="Global.Topology_Control.ConstellationTopologyControl.html" xlink:title="Simple Module ConstellationTopologyControl" target="_parent">
<polygon fill="#fffcaf" stroke="black" points="773.5,-19 613.5,-19 613.5,0 773.5,0 773.5,-19"/>
<text text-anchor="middle" x="693.5" y="-7" font-family="Helvetica,sans-Serif" font-size="10.00">ConstellationTopologyControl</text>
</a>
</g>
</g>
<!-- Florasat&#45;&gt;ConstellationTopologyControl -->
<g id="edge7" class="edge">
<title>Florasat&#45;&gt;ConstellationTopologyControl</title>
<path fill="none" stroke="black" d="M467.65,-57.63C509.88,-48.81 590.26,-32.04 642.86,-21.07"/>
<polygon fill="black" stroke="black" points="643.59,-24.49 652.66,-19.02 642.16,-17.64 643.59,-24.49"/>
</g>
<!-- ConstellationCreator -->
<g id="node9" class="node">
<title>ConstellationCreator</title>
<g id="a_node9"><a xlink:href="Global.Constellation_Creator.ConstellationCreator.html" xlink:title="Simple Module ConstellationCreator" target="_parent">
<polygon fill="#fffcaf" stroke="black" points="909,-19 792,-19 792,0 909,0 909,-19"/>
<text text-anchor="middle" x="850.5" y="-7" font-family="Helvetica,sans-Serif" font-size="10.00">ConstellationCreator</text>
</a>
</g>
</g>
<!-- Florasat&#45;&gt;ConstellationCreator -->
<g id="edge8" class="edge">
<title>Florasat&#45;&gt;ConstellationCreator</title>
<path fill="none" stroke="black" d="M467.75,-59.86C531.9,-51.58 690.11,-31.18 781.79,-19.36"/>
<polygon fill="black" stroke="black" points="782.34,-22.82 791.81,-18.07 781.44,-15.88 782.34,-22.82"/>
</g>
<!-- Sat_Mob_Orchestrator -->
<g id="node10" class="node">
<title>Sat_Mob_Orchestrator</title>
<g id="a_node10"><a xlink:href="Nodes._20_Satellite._60_Mobility.Sat_Mob_Orchestrator.html" xlink:title="Simple Module Sat_Mob_Orchestrator" target="_parent">
<polygon fill="#fffcaf" stroke="black" points="1052,-19 927,-19 927,0 1052,0 1052,-19"/>
<text text-anchor="middle" x="989.5" y="-7" font-family="Helvetica,sans-Serif" font-size="10.00">Sat_Mob_Orchestrator</text>
</a>
</g>
</g>
<!-- Florasat&#45;&gt;Sat_Mob_Orchestrator -->
<g id="edge9" class="edge">
<title>Florasat&#45;&gt;Sat_Mob_Orchestrator</title>
<path fill="none" stroke="black" d="M467.6,-61.15C540.14,-55.03 739.82,-37.84 916.78,-19.16"/>
<polygon fill="black" stroke="black" points="917.21,-22.63 926.79,-18.1 916.48,-15.67 917.21,-22.63"/>
</g>
</g>
</svg>
