<?xml version="1.0" encoding="UTF-8" standalone="no"?>
<!DOCTYPE svg PUBLIC "-//W3C//DTD SVG 1.1//EN"
 "http://www.w3.org/Graphics/SVG/1.1/DTD/svg11.dtd">
<!-- Generated by graphviz version 2.43.0 (0)
 -->
<!-- Title: opp Pages: 1 -->
<svg width="133pt" height="137pt"
 viewBox="0.00 0.00 133.00 137.00" xmlns="http://www.w3.org/2000/svg" xmlns:xlink="http://www.w3.org/1999/xlink">
<g id="graph0" class="graph" transform="scale(1 1) rotate(0) translate(4 133)">
<title>opp</title>
<polygon fill="transparent" stroke="transparent" points="-4,4 -4,-133 129,-133 129,4 -4,4"/>
<!-- Ter_Base_Routing -->
<g id="node1" class="node">
<title>Ter_Base_Routing</title>
<g id="a_node1"><a xlink:href="Global.Base._30_Network.Ter_Base_Routing.html" xlink:title="Simple Module Ter_Base_Routing" target="_parent">
<polygon fill="#fff700" stroke="black" points="114,-74 11,-74 11,-55 114,-55 114,-74"/>
<text text-anchor="middle" x="62.5" y="-62" font-family="Helvetica,sans-Serif" font-size="10.00">Ter_Base_Routing</text>
</a>
</g>
</g>
<!-- Ter_Net_DDRARouting -->
<g id="node3" class="node">
<title>Ter_Net_DDRARouting</title>
<g id="a_node3"><a xlink:href="Nodes._10_Terminal._30_Network.routing.ddra.Ter_Net_DDRARouting.html" xlink:title="Simple Module Ter_Net_DDRARouting" target="_parent">
<polygon fill="#fffcaf" stroke="black" points="125,-19 0,-19 0,0 125,0 125,-19"/>
<text text-anchor="middle" x="62.5" y="-7" font-family="Helvetica,sans-Serif" font-size="10.00">Ter_Net_DDRARouting</text>
</a>
</g>
</g>
<!-- Ter_Base_Routing&#45;&gt;Ter_Net_DDRARouting -->
<g id="edge2" class="edge">
<title>Ter_Base_Routing&#45;&gt;Ter_Net_DDRARouting</title>
<path fill="none" stroke="black" d="M62.5,-54.75C62.5,-44.87 62.5,-28.9 62.5,-19.09"/>
</g>
<!-- Ter_Base_IRouting -->
<g id="node2" class="node">
<title>Ter_Base_IRouting</title>
<g id="a_node2"><a xlink:href="Global.Base._30_Network.Ter_Base_IRouting.html" xlink:title="Module Interface Ter_Base_IRouting" target="_parent">
<polygon fill="#fffcaf" stroke="black" stroke-dasharray="5,2" points="115.5,-129 9.5,-129 9.5,-110 115.5,-110 115.5,-129"/>
<text text-anchor="middle" x="62.5" y="-117" font-family="Helvetica,sans-Serif" font-size="10.00">Ter_Base_IRouting</text>
</a>
</g>
</g>
<!-- Ter_Base_IRouting&#45;&gt;Ter_Base_Routing -->
<g id="edge1" class="edge">
<title>Ter_Base_IRouting&#45;&gt;Ter_Base_Routing</title>
<path fill="none" stroke="black" stroke-dasharray="5,2" d="M62.5,-109.75C62.5,-99.87 62.5,-83.9 62.5,-74.09"/>
</g>
</g>
</svg>
