<?xml version="1.0" encoding="UTF-8" standalone="no"?>
<!DOCTYPE svg PUBLIC "-//W3C//DTD SVG 1.1//EN"
 "http://www.w3.org/Graphics/SVG/1.1/DTD/svg11.dtd">
<!-- Generated by graphviz version 2.43.0 (0)
 -->
<!-- Title: opp Pages: 1 -->
<svg width="232pt" height="82pt"
 viewBox="0.00 0.00 231.50 82.00" xmlns="http://www.w3.org/2000/svg" xmlns:xlink="http://www.w3.org/1999/xlink">
<g id="graph0" class="graph" transform="scale(1 1) rotate(0) translate(4 78)">
<title>opp</title>
<polygon fill="transparent" stroke="transparent" points="-4,4 -4,-78 227.5,-78 227.5,4 -4,4"/>
<!-- Base_IRouting -->
<g id="node1" class="node">
<title>Base_IRouting</title>
<g id="a_node1"><a xlink:href="Global.Base._30_Network.Base_IRouting.html" xlink:title="Module Interface Base_IRouting" target="_parent">
<polygon fill="#fff700" stroke="black" stroke-dasharray="5,2" points="144.5,-74 58.5,-74 58.5,-55 144.5,-55 144.5,-74"/>
<text text-anchor="middle" x="101.5" y="-62" font-family="Helvetica,sans-Serif" font-size="10.00">Base_IRouting</text>
</a>
</g>
</g>
<!-- Base_Routing -->
<g id="node2" class="node">
<title>Base_Routing</title>
<g id="a_node2"><a xlink:href="Global.Base._30_Network.Base_Routing.html" xlink:title="Simple Module Base_Routing" target="_parent">
<polygon fill="#fffcaf" stroke="black" points="83,-19 0,-19 0,0 83,0 83,-19"/>
<text text-anchor="middle" x="41.5" y="-7" font-family="Helvetica,sans-Serif" font-size="10.00">Base_Routing</text>
</a>
</g>
</g>
<!-- Base_IRouting&#45;&gt;Base_Routing -->
<g id="edge1" class="edge">
<title>Base_IRouting&#45;&gt;Base_Routing</title>
<path fill="none" stroke="black" stroke-dasharray="5,2" d="M91.86,-54.98C80.73,-45.15 62.52,-29.07 51.32,-19.17"/>
</g>
<!-- Sat_Net_RoutingBase -->
<g id="node3" class="node">
<title>Sat_Net_RoutingBase</title>
<g id="a_node3"><a xlink:href="Nodes._20_Satellite._30_Network.Sat_Net_RoutingBase.html" xlink:title="Simple Module Sat_Net_RoutingBase" target="_parent">
<polygon fill="#fffcaf" stroke="black" points="223.5,-19 101.5,-19 101.5,0 223.5,0 223.5,-19"/>
<text text-anchor="middle" x="162.5" y="-7" font-family="Helvetica,sans-Serif" font-size="10.00">Sat_Net_RoutingBase</text>
</a>
</g>
</g>
<!-- Base_IRouting&#45;&gt;Sat_Net_RoutingBase -->
<g id="edge2" class="edge">
<title>Base_IRouting&#45;&gt;Sat_Net_RoutingBase</title>
<path fill="none" stroke="black" stroke-dasharray="5,2" d="M111.3,-54.98C122.62,-45.15 141.13,-29.07 152.52,-19.17"/>
</g>
</g>
</svg>
