<?xml version="1.0" encoding="UTF-8" standalone="no"?>
<!DOCTYPE svg PUBLIC "-//W3C//DTD SVG 1.1//EN"
 "http://www.w3.org/Graphics/SVG/1.1/DTD/svg11.dtd">
<!-- Generated by graphviz version 2.43.0 (0)
 -->
<!-- Title: opp Pages: 1 -->
<svg width="252pt" height="137pt"
 viewBox="0.00 0.00 252.00 137.00" xmlns="http://www.w3.org/2000/svg" xmlns:xlink="http://www.w3.org/1999/xlink">
<g id="graph0" class="graph" transform="scale(1 1) rotate(0) translate(4 133)">
<title>opp</title>
<polygon fill="transparent" stroke="transparent" points="-4,4 -4,-133 248,-133 248,4 -4,4"/>
<!-- Base_Routing -->
<g id="node1" class="node">
<title>Base_Routing</title>
<g id="a_node1"><a xlink:href="Global.Base._30_Network.Base_Routing.html" xlink:title="Simple Module Base_Routing" target="_parent">
<polygon fill="#fff700" stroke="black" points="169.5,-74 86.5,-74 86.5,-55 169.5,-55 169.5,-74"/>
<text text-anchor="middle" x="128" y="-62" font-family="Helvetica,sans-Serif" font-size="10.00">Base_Routing</text>
</a>
</g>
</g>
<!-- Sat_Net_DDRARouting -->
<g id="node3" class="node">
<title>Sat_Net_DDRARouting</title>
<g id="a_node3"><a xlink:href="Nodes._20_Satellite._30_Network.Routing.ddra.Sat_Net_DDRARouting.html" xlink:title="Simple Module Sat_Net_DDRARouting" target="_parent">
<polygon fill="#fffcaf" stroke="black" points="126,-19 0,-19 0,0 126,0 126,-19"/>
<text text-anchor="middle" x="63" y="-7" font-family="Helvetica,sans-Serif" font-size="10.00">Sat_Net_DDRARouting</text>
</a>
</g>
</g>
<!-- Base_Routing&#45;&gt;Sat_Net_DDRARouting -->
<g id="edge2" class="edge">
<title>Base_Routing&#45;&gt;Sat_Net_DDRARouting</title>
<path fill="none" stroke="black" d="M117.56,-54.98C105.5,-45.15 85.77,-29.07 73.63,-19.17"/>
</g>
<!-- StoreAndForward -->
<g id="node4" class="node">
<title>StoreAndForward</title>
<g id="a_node4"><a xlink:href="Nodes._20_Satellite._30_Network.StoreAndForward.html" xlink:title="Simple Module StoreAndForward" target="_parent">
<polygon fill="#fffcaf" stroke="black" points="244,-19 144,-19 144,0 244,0 244,-19"/>
<text text-anchor="middle" x="194" y="-7" font-family="Helvetica,sans-Serif" font-size="10.00">StoreAndForward</text>
</a>
</g>
</g>
<!-- Base_Routing&#45;&gt;StoreAndForward -->
<g id="edge3" class="edge">
<title>Base_Routing&#45;&gt;StoreAndForward</title>
<path fill="none" stroke="black" d="M138.6,-54.98C150.85,-45.15 170.88,-29.07 183.2,-19.17"/>
</g>
<!-- Base_IRouting -->
<g id="node2" class="node">
<title>Base_IRouting</title>
<g id="a_node2"><a xlink:href="Global.Base._30_Network.Base_IRouting.html" xlink:title="Module Interface Base_IRouting" target="_parent">
<polygon fill="#fffcaf" stroke="black" stroke-dasharray="5,2" points="171,-129 85,-129 85,-110 171,-110 171,-129"/>
<text text-anchor="middle" x="128" y="-117" font-family="Helvetica,sans-Serif" font-size="10.00">Base_IRouting</text>
</a>
</g>
</g>
<!-- Base_IRouting&#45;&gt;Base_Routing -->
<g id="edge1" class="edge">
<title>Base_IRouting&#45;&gt;Base_Routing</title>
<path fill="none" stroke="black" stroke-dasharray="5,2" d="M128,-109.75C128,-99.87 128,-83.9 128,-74.09"/>
</g>
</g>
</svg>
