<?xml version="1.0" encoding="UTF-8" standalone="no"?>
<!DOCTYPE svg PUBLIC "-//W3C//DTD SVG 1.1//EN"
 "http://www.w3.org/Graphics/SVG/1.1/DTD/svg11.dtd">
<!-- Generated by graphviz version 2.43.0 (0)
 -->
<!-- Title: opp Pages: 1 -->
<svg width="2100pt" height="82pt"
 viewBox="0.00 0.00 2099.50 82.00" xmlns="http://www.w3.org/2000/svg" xmlns:xlink="http://www.w3.org/1999/xlink">
<g id="graph0" class="graph" transform="scale(1 1) rotate(0) translate(4 78)">
<title>opp</title>
<polygon fill="transparent" stroke="transparent" points="-4,4 -4,-78 2095.5,-78 2095.5,4 -4,4"/>
<!-- LayerForwarder -->
<g id="node1" class="node">
<title>LayerForwarder</title>
<g id="a_node1"><a xlink:href="Global.Utilities.LayerForwarder.html" xlink:title="Simple Module LayerForwarder" target="_parent">
<polygon fill="#fff700" stroke="black" points="1075,-74 983,-74 983,-55 1075,-55 1075,-74"/>
<text text-anchor="middle" x="1029" y="-62" font-family="Helvetica,sans-Serif" font-size="10.00">LayerForwarder</text>
</a>
</g>
</g>
<!-- Sat_App -->
<g id="node2" class="node">
<title>Sat_App</title>
<g id="a_node2"><a xlink:href="Nodes._20_Satellite._40_Application.Sat_App.html" xlink:title="Simple Module Sat_App" target="_parent">
<polygon fill="#fffcaf" stroke="black" points="56,-19 0,-19 0,0 56,0 56,-19"/>
<text text-anchor="middle" x="28" y="-7" font-family="Helvetica,sans-Serif" font-size="10.00">Sat_App</text>
</a>
</g>
</g>
<!-- LayerForwarder&#45;&gt;Sat_App -->
<g id="edge1" class="edge">
<title>LayerForwarder&#45;&gt;Sat_App</title>
<path fill="none" stroke="black" d="M982.97,-62.47C816.46,-58.58 245.72,-43.73 65,-19 62.13,-18.61 59.15,-18.1 56.19,-17.52"/>
</g>
<!-- Sat_Dsl_Phy -->
<g id="node3" class="node">
<title>Sat_Dsl_Phy</title>
<g id="a_node3"><a xlink:href="Nodes._20_Satellite.DSL._10_Physical.Sat_Dsl_Phy.html" xlink:title="Compound Module Sat_Dsl_Phy" target="_parent">
<polygon fill="#fffcaf" stroke="black" points="151.5,-19 74.5,-19 74.5,0 151.5,0 151.5,-19"/>
<text text-anchor="middle" x="113" y="-7" font-family="Helvetica,sans-Serif" font-size="10.00">Sat_Dsl_Phy</text>
</a>
</g>
</g>
<!-- LayerForwarder&#45;&gt;Sat_Dsl_Phy -->
<g id="edge2" class="edge">
<title>LayerForwarder&#45;&gt;Sat_Dsl_Phy</title>
<path fill="none" stroke="black" d="M982.67,-63.21C852.55,-61.94 472.89,-55.15 160,-19 157.28,-18.69 154.48,-18.31 151.67,-17.9"/>
</g>
<!-- Sat_Gsl_Dlk -->
<g id="node4" class="node">
<title>Sat_Gsl_Dlk</title>
<g id="a_node4"><a xlink:href="Nodes._20_Satellite.GSL._20_Data_Link.Sat_Gsl_Dlk.html" xlink:title="Simple Module Sat_Gsl_Dlk" target="_parent">
<polygon fill="#fffcaf" stroke="black" points="244.5,-19 169.5,-19 169.5,0 244.5,0 244.5,-19"/>
<text text-anchor="middle" x="207" y="-7" font-family="Helvetica,sans-Serif" font-size="10.00">Sat_Gsl_Dlk</text>
</a>
</g>
</g>
<!-- LayerForwarder&#45;&gt;Sat_Gsl_Dlk -->
<g id="edge3" class="edge">
<title>LayerForwarder&#45;&gt;Sat_Gsl_Dlk</title>
<path fill="none" stroke="black" d="M982.9,-62.87C862.47,-60.79 528.65,-52.24 253,-19 250.26,-18.67 247.43,-18.28 244.6,-17.84"/>
</g>
<!-- Sat_Gsl_Phy -->
<g id="node5" class="node">
<title>Sat_Gsl_Phy</title>
<g id="a_node5"><a xlink:href="Nodes._20_Satellite.GSL._10_Physical.Sat_Gsl_Phy.html" xlink:title="Compound Module Sat_Gsl_Phy" target="_parent">
<polygon fill="#fffcaf" stroke="black" points="339.5,-19 262.5,-19 262.5,0 339.5,0 339.5,-19"/>
<text text-anchor="middle" x="301" y="-7" font-family="Helvetica,sans-Serif" font-size="10.00">Sat_Gsl_Phy</text>
</a>
</g>
</g>
<!-- LayerForwarder&#45;&gt;Sat_Gsl_Phy -->
<g id="edge4" class="edge">
<title>LayerForwarder&#45;&gt;Sat_Gsl_Phy</title>
<path fill="none" stroke="black" d="M983,-62.3C872.93,-59.03 585.84,-48.18 348,-19 345.28,-18.67 342.49,-18.28 339.68,-17.85"/>
</g>
<!-- Sat_Isl_Dlk -->
<g id="node6" class="node">
<title>Sat_Isl_Dlk</title>
<g id="a_node6"><a xlink:href="Nodes._20_Satellite.ISL._20_Data_Link.Sat_Isl_Dlk.html" xlink:title="Simple Module Sat_Isl_Dlk" target="_parent">
<polygon fill="#fffcaf" stroke="black" points="428.5,-19 357.5,-19 357.5,0 428.5,0 428.5,-19"/>
<text text-anchor="middle" x="393" y="-7" font-family="Helvetica,sans-Serif" font-size="10.00">Sat_Isl_Dlk</text>
</a>
</g>
</g>
<!-- LayerForwarder&#45;&gt;Sat_Isl_Dlk -->
<g id="edge5" class="edge">
<title>LayerForwarder&#45;&gt;Sat_Isl_Dlk</title>
<path fill="none" stroke="black" d="M982.84,-61.78C883.07,-57.67 639.99,-45.6 438,-19 435,-18.61 431.91,-18.14 428.8,-17.64"/>
</g>
<!-- Sat_Isl_Phy -->
<g id="node7" class="node">
<title>Sat_Isl_Phy</title>
<g id="a_node7"><a xlink:href="Nodes._20_Satellite.ISL._10_Physical.Sat_Isl_Phy.html" xlink:title="Compound Module Sat_Isl_Phy" target="_parent">
<polygon fill="#fffcaf" stroke="black" points="519,-19 447,-19 447,0 519,0 519,-19"/>
<text text-anchor="middle" x="483" y="-7" font-family="Helvetica,sans-Serif" font-size="10.00">Sat_Isl_Phy</text>
</a>
</g>
</g>
<!-- LayerForwarder&#45;&gt;Sat_Isl_Phy -->
<g id="edge6" class="edge">
<title>LayerForwarder&#45;&gt;Sat_Isl_Phy</title>
<path fill="none" stroke="black" d="M982.9,-60.92C894.4,-55.64 694.72,-42.09 528,-19 525.16,-18.61 522.24,-18.16 519.3,-17.67"/>
</g>
<!-- Satellite -->
<g id="node8" class="node">
<title>Satellite</title>
<g id="a_node8"><a xlink:href="Nodes._20_Satellite.Satellite.html" xlink:title="Compound Module Satellite" target="_parent">
<polygon fill="#fffcaf" stroke="black" points="594.5,-19 537.5,-19 537.5,0 594.5,0 594.5,-19"/>
<text text-anchor="middle" x="566" y="-7" font-family="Helvetica,sans-Serif" font-size="10.00">Satellite</text>
</a>
</g>
</g>
<!-- LayerForwarder&#45;&gt;Satellite -->
<g id="edge7" class="edge">
<title>LayerForwarder&#45;&gt;Satellite</title>
<path fill="none" stroke="black" d="M982.86,-60.43C904.58,-54.82 740.91,-41.4 604,-19 600.93,-18.5 597.74,-17.9 594.56,-17.26"/>
</g>
<!-- Server -->
<g id="node9" class="node">
<title>Server</title>
<g id="a_node9"><a xlink:href="Nodes._40_Server.Server.html" xlink:title="Compound Module Server" target="_parent">
<polygon fill="#fffcaf" stroke="black" points="667,-19 613,-19 613,0 667,0 667,-19"/>
<text text-anchor="middle" x="640" y="-7" font-family="Helvetica,sans-Serif" font-size="10.00">Server</text>
</a>
</g>
</g>
<!-- LayerForwarder&#45;&gt;Server -->
<g id="edge8" class="edge">
<title>LayerForwarder&#45;&gt;Server</title>
<path fill="none" stroke="black" d="M982.79,-59.26C915.12,-52.69 785.26,-38.73 676,-19 673.09,-18.48 670.07,-17.86 667.06,-17.22"/>
</g>
<!-- ServerApplicationLayer -->
<g id="node10" class="node">
<title>ServerApplicationLayer</title>
<g id="a_node10"><a xlink:href="Nodes._40_Server._40_Application.ServerApplicationLayer.html" xlink:title="Simple Module ServerApplicationLayer" target="_parent">
<polygon fill="#fffcaf" stroke="black" points="815,-19 685,-19 685,0 815,0 815,-19"/>
<text text-anchor="middle" x="750" y="-7" font-family="Helvetica,sans-Serif" font-size="10.00">ServerApplicationLayer</text>
</a>
</g>
</g>
<!-- LayerForwarder&#45;&gt;ServerApplicationLayer -->
<g id="edge9" class="edge">
<title>LayerForwarder&#45;&gt;ServerApplicationLayer</title>
<path fill="none" stroke="black" d="M984.17,-54.98C932.26,-45.12 847.24,-28.97 795.18,-19.08"/>
</g>
<!-- ServerDataLinkLayer -->
<g id="node11" class="node">
<title>ServerDataLinkLayer</title>
<g id="a_node11"><a xlink:href="Nodes._40_Server._20_Data_Link.ServerDataLinkLayer.html" xlink:title="Simple Module ServerDataLinkLayer" target="_parent">
<polygon fill="#fffcaf" stroke="black" points="952.5,-19 833.5,-19 833.5,0 952.5,0 952.5,-19"/>
<text text-anchor="middle" x="893" y="-7" font-family="Helvetica,sans-Serif" font-size="10.00">ServerDataLinkLayer</text>
</a>
</g>
</g>
<!-- LayerForwarder&#45;&gt;ServerDataLinkLayer -->
<g id="edge10" class="edge">
<title>LayerForwarder&#45;&gt;ServerDataLinkLayer</title>
<path fill="none" stroke="black" d="M1007.15,-54.98C981.92,-45.15 940.64,-29.07 915.25,-19.17"/>
</g>
<!-- ServerNetworkLayer -->
<g id="node12" class="node">
<title>ServerNetworkLayer</title>
<g id="a_node12"><a xlink:href="Nodes._40_Server._30_Network.ServerNetworkLayer.html" xlink:title="Simple Module ServerNetworkLayer" target="_parent">
<polygon fill="#fffcaf" stroke="black" points="1087,-19 971,-19 971,0 1087,0 1087,-19"/>
<text text-anchor="middle" x="1029" y="-7" font-family="Helvetica,sans-Serif" font-size="10.00">ServerNetworkLayer</text>
</a>
</g>
</g>
<!-- LayerForwarder&#45;&gt;ServerNetworkLayer -->
<g id="edge11" class="edge">
<title>LayerForwarder&#45;&gt;ServerNetworkLayer</title>
<path fill="none" stroke="black" d="M1029,-54.75C1029,-44.87 1029,-28.9 1029,-19.09"/>
</g>
<!-- ServerPhysicalLayer -->
<g id="node13" class="node">
<title>ServerPhysicalLayer</title>
<g id="a_node13"><a xlink:href="Nodes._40_Server._10_Physical.ServerPhysicalLayer.html" xlink:title="Simple Module ServerPhysicalLayer" target="_parent">
<polygon fill="#fffcaf" stroke="black" points="1221,-19 1105,-19 1105,0 1221,0 1221,-19"/>
<text text-anchor="middle" x="1163" y="-7" font-family="Helvetica,sans-Serif" font-size="10.00">ServerPhysicalLayer</text>
</a>
</g>
</g>
<!-- LayerForwarder&#45;&gt;ServerPhysicalLayer -->
<g id="edge12" class="edge">
<title>LayerForwarder&#45;&gt;ServerPhysicalLayer</title>
<path fill="none" stroke="black" d="M1050.53,-54.98C1075.39,-45.15 1116.06,-29.07 1141.08,-19.17"/>
</g>
<!-- Sta_Net -->
<g id="node14" class="node">
<title>Sta_Net</title>
<g id="a_node14"><a xlink:href="Nodes._30_Station._30_Network.Sta_Net.html" xlink:title="Compound Module Sta_Net" target="_parent">
<polygon fill="#fffcaf" stroke="black" points="1294.5,-19 1239.5,-19 1239.5,0 1294.5,0 1294.5,-19"/>
<text text-anchor="middle" x="1267" y="-7" font-family="Helvetica,sans-Serif" font-size="10.00">Sta_Net</text>
</a>
</g>
</g>
<!-- LayerForwarder&#45;&gt;Sta_Net -->
<g id="edge13" class="edge">
<title>LayerForwarder&#45;&gt;Sta_Net</title>
<path fill="none" stroke="black" d="M1067.93,-54.98C1108.44,-46.09 1173.69,-31.7 1230,-19 1232.96,-18.33 1236.05,-17.63 1239.13,-16.93"/>
</g>
<!-- Station -->
<g id="node15" class="node">
<title>Station</title>
<g id="a_node15"><a xlink:href="Nodes._30_Station.Station.html" xlink:title="Compound Module Station" target="_parent">
<polygon fill="#fffcaf" stroke="black" points="1367,-19 1313,-19 1313,0 1367,0 1367,-19"/>
<text text-anchor="middle" x="1340" y="-7" font-family="Helvetica,sans-Serif" font-size="10.00">Station</text>
</a>
</g>
</g>
<!-- LayerForwarder&#45;&gt;Station -->
<g id="edge14" class="edge">
<title>LayerForwarder&#45;&gt;Station</title>
<path fill="none" stroke="black" d="M1075.41,-57.02C1130.22,-49.14 1224.07,-34.88 1304,-19 1306.9,-18.42 1309.92,-17.78 1312.92,-17.11"/>
</g>
<!-- StationApplicationLayer -->
<g id="node16" class="node">
<title>StationApplicationLayer</title>
<g id="a_node16"><a xlink:href="Nodes._30_Station._40_Application.StationApplicationLayer.html" xlink:title="Simple Module StationApplicationLayer" target="_parent">
<polygon fill="#fffcaf" stroke="black" points="1518.5,-19 1385.5,-19 1385.5,0 1518.5,0 1518.5,-19"/>
<text text-anchor="middle" x="1452" y="-7" font-family="Helvetica,sans-Serif" font-size="10.00">StationApplicationLayer</text>
</a>
</g>
</g>
<!-- LayerForwarder&#45;&gt;StationApplicationLayer -->
<g id="edge15" class="edge">
<title>LayerForwarder&#45;&gt;StationApplicationLayer</title>
<path fill="none" stroke="black" d="M1075.07,-57.73C1150.02,-48.34 1298.64,-29.72 1385.18,-18.87"/>
</g>
<!-- StationDataLinkLayer -->
<g id="node17" class="node">
<title>StationDataLinkLayer</title>
<g id="a_node17"><a xlink:href="Nodes._30_Station._20_Data_Link.StationDataLinkLayer.html" xlink:title="Simple Module StationDataLinkLayer" target="_parent">
<polygon fill="#fffcaf" stroke="black" points="1659,-19 1537,-19 1537,0 1659,0 1659,-19"/>
<text text-anchor="middle" x="1598" y="-7" font-family="Helvetica,sans-Serif" font-size="10.00">StationDataLinkLayer</text>
</a>
</g>
</g>
<!-- LayerForwarder&#45;&gt;StationDataLinkLayer -->
<g id="edge16" class="edge">
<title>LayerForwarder&#45;&gt;StationDataLinkLayer</title>
<path fill="none" stroke="black" d="M1075.14,-59.88C1163.25,-52.86 1361.49,-36.53 1528,-19 1530.92,-18.69 1533.91,-18.37 1536.93,-18.03"/>
</g>
<!-- StationPhysicalLayer -->
<g id="node18" class="node">
<title>StationPhysicalLayer</title>
<g id="a_node18"><a xlink:href="Nodes._30_Station._10_Physical.StationPhysicalLayer.html" xlink:title="Simple Module StationPhysicalLayer" target="_parent">
<polygon fill="#fffcaf" stroke="black" points="1796.5,-19 1677.5,-19 1677.5,0 1796.5,0 1796.5,-19"/>
<text text-anchor="middle" x="1737" y="-7" font-family="Helvetica,sans-Serif" font-size="10.00">StationPhysicalLayer</text>
</a>
</g>
</g>
<!-- LayerForwarder&#45;&gt;StationPhysicalLayer -->
<g id="edge17" class="edge">
<title>LayerForwarder&#45;&gt;StationPhysicalLayer</title>
<path fill="none" stroke="black" d="M1075.18,-61.13C1180.46,-55.53 1446.34,-40.36 1668,-19 1671,-18.71 1674.08,-18.4 1677.18,-18.07"/>
</g>
<!-- Ter_App -->
<g id="node19" class="node">
<title>Ter_App</title>
<g id="a_node19"><a xlink:href="Nodes._10_Terminal._40_Application.Ter_App.html" xlink:title="Simple Module Ter_App" target="_parent">
<polygon fill="#fffcaf" stroke="black" points="1869.5,-19 1814.5,-19 1814.5,0 1869.5,0 1869.5,-19"/>
<text text-anchor="middle" x="1842" y="-7" font-family="Helvetica,sans-Serif" font-size="10.00">Ter_App</text>
</a>
</g>
</g>
<!-- LayerForwarder&#45;&gt;Ter_App -->
<g id="edge18" class="edge">
<title>LayerForwarder&#45;&gt;Ter_App</title>
<path fill="none" stroke="black" d="M1075.26,-63.66C1196.1,-63.46 1530.9,-59.04 1806,-19 1808.67,-18.61 1811.43,-18.12 1814.18,-17.57"/>
</g>
<!-- Ter_Net -->
<g id="node20" class="node">
<title>Ter_Net</title>
<g id="a_node20"><a xlink:href="Nodes._10_Terminal._30_Network.Ter_Net.html" xlink:title="Compound Module Ter_Net" target="_parent">
<polygon fill="#fffcaf" stroke="black" points="1942,-19 1888,-19 1888,0 1942,0 1942,-19"/>
<text text-anchor="middle" x="1915" y="-7" font-family="Helvetica,sans-Serif" font-size="10.00">Ter_Net</text>
</a>
</g>
</g>
<!-- LayerForwarder&#45;&gt;Ter_Net -->
<g id="edge19" class="edge">
<title>LayerForwarder&#45;&gt;Ter_Net</title>
<path fill="none" stroke="black" d="M1075.35,-63.98C1203.77,-64.7 1574.73,-62.53 1879,-19 1881.92,-18.58 1884.96,-18.04 1887.97,-17.43"/>
</g>
<!-- Ter_Phy -->
<g id="node21" class="node">
<title>Ter_Phy</title>
<g id="a_node21"><a xlink:href="Nodes._10_Terminal._10_Physical.Ter_Phy.html" xlink:title="Compound Module Ter_Phy" target="_parent">
<polygon fill="#fffcaf" stroke="black" points="2014,-19 1960,-19 1960,0 2014,0 2014,-19"/>
<text text-anchor="middle" x="1987" y="-7" font-family="Helvetica,sans-Serif" font-size="10.00">Ter_Phy</text>
</a>
</g>
</g>
<!-- LayerForwarder&#45;&gt;Ter_Phy -->
<g id="edge20" class="edge">
<title>LayerForwarder&#45;&gt;Ter_Phy</title>
<path fill="none" stroke="black" d="M1075.25,-62.39C1237.31,-58.33 1779.02,-43.24 1951,-19 1953.93,-18.59 1956.96,-18.05 1959.97,-17.44"/>
</g>
<!-- Terminal -->
<g id="node22" class="node">
<title>Terminal</title>
<g id="a_node22"><a xlink:href="Nodes._10_Terminal.Terminal.html" xlink:title="Compound Module Terminal" target="_parent">
<polygon fill="#fffcaf" stroke="black" points="2091.5,-19 2032.5,-19 2032.5,0 2091.5,0 2091.5,-19"/>
<text text-anchor="middle" x="2062" y="-7" font-family="Helvetica,sans-Serif" font-size="10.00">Terminal</text>
</a>
</g>
</g>
<!-- LayerForwarder&#45;&gt;Terminal -->
<g id="edge21" class="edge">
<title>LayerForwarder&#45;&gt;Terminal</title>
<path fill="none" stroke="black" d="M1075.27,-62.47C1245.41,-58.53 1836.08,-43.37 2023,-19 2026.02,-18.61 2029.16,-18.1 2032.28,-17.52"/>
</g>
</g>
</svg>
