<?xml version="1.0" encoding="UTF-8" standalone="no"?>
<!DOCTYPE svg PUBLIC "-//W3C//DTD SVG 1.1//EN"
 "http://www.w3.org/Graphics/SVG/1.1/DTD/svg11.dtd">
<!-- Generated by graphviz version 2.43.0 (0)
 -->
<!-- Title: opp Pages: 1 -->
<svg width="134pt" height="82pt"
 viewBox="0.00 0.00 134.00 82.00" xmlns="http://www.w3.org/2000/svg" xmlns:xlink="http://www.w3.org/1999/xlink">
<g id="graph0" class="graph" transform="scale(1 1) rotate(0) translate(4 78)">
<title>opp</title>
<polygon fill="transparent" stroke="transparent" points="-4,4 -4,-78 130,-78 130,4 -4,4"/>
<!-- LoRaTag -->
<g id="node1" class="node">
<title>LoRaTag</title>
<g id="a_node1"><a xlink:href="mac-LoRaTag.html" xlink:title="Class LoRaTag" target="_parent">
<polygon fill="#fff700" stroke="black" points="91.5,-74 34.5,-74 34.5,-55 91.5,-55 91.5,-74"/>
<text text-anchor="middle" x="63" y="-62" font-family="Helvetica,sans-Serif" font-size="10.00">LoRaTag</text>
</a>
</g>
</g>
<!-- Hz -->
<g id="node2" class="node">
<title>Hz</title>
<g id="a_node2"><a xlink:href="../../../inet4.3/doc/neddoc/inet-Hz.html" xlink:title="Class Hz" target="_parent">
<polygon fill="#fffcaf" stroke="black" points="54,-19 0,-19 0,0 54,0 54,-19"/>
<text text-anchor="middle" x="27" y="-7" font-family="Helvetica,sans-Serif" font-size="10.00">Hz</text>
</a>
</g>
</g>
<!-- LoRaTag&#45;&gt;Hz -->
<g id="edge1" class="edge">
<title>LoRaTag&#45;&gt;Hz</title>
<path fill="none" stroke="black" d="M57.06,-54.75C52.02,-47.34 44.66,-36.5 38.49,-27.41"/>
<polygon fill="black" stroke="black" points="41.35,-25.39 32.83,-19.09 35.56,-29.33 41.35,-25.39"/>
</g>
<!-- W -->
<g id="node3" class="node">
<title>W</title>
<g id="a_node3"><a xlink:href="../../../inet4.3/doc/neddoc/inet-W.html" xlink:title="Class W" target="_parent">
<polygon fill="#fffcaf" stroke="black" points="126,-19 72,-19 72,0 126,0 126,-19"/>
<text text-anchor="middle" x="99" y="-7" font-family="Helvetica,sans-Serif" font-size="10.00">W</text>
</a>
</g>
</g>
<!-- LoRaTag&#45;&gt;W -->
<g id="edge2" class="edge">
<title>LoRaTag&#45;&gt;W</title>
<path fill="none" stroke="black" d="M68.94,-54.75C73.98,-47.34 81.34,-36.5 87.51,-27.41"/>
<polygon fill="black" stroke="black" points="90.44,-29.33 93.17,-19.09 84.65,-25.39 90.44,-29.33"/>
</g>
</g>
</svg>
