<?xml version="1.0" encoding="UTF-8" standalone="no"?>
<!DOCTYPE svg PUBLIC "-//W3C//DTD SVG 1.1//EN"
 "http://www.w3.org/Graphics/SVG/1.1/DTD/svg11.dtd">
<!-- Generated by graphviz version 2.43.0 (0)
 -->
<!-- Title: opp Pages: 1 -->
<svg width="156pt" height="82pt"
 viewBox="0.00 0.00 156.00 82.00" xmlns="http://www.w3.org/2000/svg" xmlns:xlink="http://www.w3.org/1999/xlink">
<g id="graph0" class="graph" transform="scale(1 1) rotate(0) translate(4 78)">
<title>opp</title>
<polygon fill="transparent" stroke="transparent" points="-4,4 -4,-78 152,-78 152,4 -4,4"/>
<!-- Base_MacFrame -->
<g id="node1" class="node">
<title>Base_MacFrame</title>
<g id="a_node1"><a xlink:href="mac-Base_MacFrame.html" xlink:title="Class Base_MacFrame" target="_parent">
<polygon fill="#fff700" stroke="black" points="127.5,-74 30.5,-74 30.5,-55 127.5,-55 127.5,-74"/>
<text text-anchor="middle" x="79" y="-62" font-family="Helvetica,sans-Serif" font-size="10.00">Base_MacFrame</text>
</a>
</g>
</g>
<!-- MacAddress -->
<g id="node2" class="node">
<title>MacAddress</title>
<g id="a_node2"><a xlink:href="../../../inet4.3/doc/neddoc/inet-MacAddress.html" xlink:title="Class MacAddress" target="_parent">
<polygon fill="#fffcaf" stroke="black" points="76,-19 0,-19 0,0 76,0 76,-19"/>
<text text-anchor="middle" x="38" y="-7" font-family="Helvetica,sans-Serif" font-size="10.00">MacAddress</text>
</a>
</g>
</g>
<!-- Base_MacFrame&#45;&gt;MacAddress -->
<g id="edge1" class="edge">
<title>Base_MacFrame&#45;&gt;MacAddress</title>
<path fill="none" stroke="black" d="M72.23,-54.75C66.44,-47.26 57.94,-36.28 50.86,-27.13"/>
<polygon fill="black" stroke="black" points="53.53,-24.86 44.64,-19.09 47.99,-29.14 53.53,-24.86"/>
</g>
<!-- Hz -->
<g id="node3" class="node">
<title>Hz</title>
<g id="a_node3"><a xlink:href="../../../inet4.3/doc/neddoc/inet-Hz.html" xlink:title="Class Hz" target="_parent">
<polygon fill="#fffcaf" stroke="black" points="148,-19 94,-19 94,0 148,0 148,-19"/>
<text text-anchor="middle" x="121" y="-7" font-family="Helvetica,sans-Serif" font-size="10.00">Hz</text>
</a>
</g>
</g>
<!-- Base_MacFrame&#45;&gt;Hz -->
<g id="edge2" class="edge">
<title>Base_MacFrame&#45;&gt;Hz</title>
<path fill="none" stroke="black" d="M85.94,-54.75C91.87,-47.26 100.57,-36.28 107.82,-27.13"/>
<polygon fill="black" stroke="black" points="110.73,-29.1 114.19,-19.09 105.24,-24.75 110.73,-29.1"/>
</g>
</g>
</svg>
