<?xml version="1.0" encoding="UTF-8" standalone="no"?>
<!DOCTYPE svg PUBLIC "-//W3C//DTD SVG 1.1//EN"
 "http://www.w3.org/Graphics/SVG/1.1/DTD/svg11.dtd">
<!-- Generated by graphviz version 2.43.0 (0)
 -->
<!-- Title: opp Pages: 1 -->
<svg width="152pt" height="82pt"
 viewBox="0.00 0.00 152.00 82.00" xmlns="http://www.w3.org/2000/svg" xmlns:xlink="http://www.w3.org/1999/xlink">
<g id="graph0" class="graph" transform="scale(1 1) rotate(0) translate(4 78)">
<title>opp</title>
<polygon fill="transparent" stroke="transparent" points="-4,4 -4,-78 148,-78 148,4 -4,4"/>
<!-- DatarateChannel -->
<g id="node1" class="node">
<title>DatarateChannel</title>
<g id="a_node1"><a xlink:href="ned.DatarateChannel.html" xlink:title="Channel DatarateChannel" target="_parent">
<polygon fill="#90ff90" stroke="black" points="116.5,-74 17.5,-74 17.5,-55 116.5,-55 116.5,-74"/>
<text text-anchor="middle" x="67" y="-62" font-family="Helvetica,sans-Serif" font-size="10.00">DatarateChannel</text>
</a>
</g>
</g>
<!-- BKH -->
<g id="node2" class="node">
<title>BKH</title>
<g id="a_node2"><a xlink:href="Florasat.BKH.html" xlink:title="Channel BKH" target="_parent">
<polygon fill="#d0ffd0" stroke="black" points="54,-19 0,-19 0,0 54,0 54,-19"/>
<text text-anchor="middle" x="27" y="-7" font-family="Helvetica,sans-Serif" font-size="10.00">BKH</text>
</a>
</g>
</g>
<!-- DatarateChannel&#45;&gt;BKH -->
<g id="edge1" class="edge">
<title>DatarateChannel&#45;&gt;BKH</title>
<path fill="none" stroke="black" d="M60.39,-54.75C52.94,-44.87 40.89,-28.9 33.48,-19.09"/>
</g>
<!-- VisualLinks -->
<g id="node3" class="node">
<title>VisualLinks</title>
<g id="a_node3"><a xlink:href="Nodes._20_Satellite._30_Network.VisualLinks.html" xlink:title="Channel VisualLinks" target="_parent">
<polygon fill="#d0ffd0" stroke="black" points="144,-19 72,-19 72,0 144,0 144,-19"/>
<text text-anchor="middle" x="108" y="-7" font-family="Helvetica,sans-Serif" font-size="10.00">VisualLinks</text>
</a>
</g>
</g>
<!-- DatarateChannel&#45;&gt;VisualLinks -->
<g id="edge2" class="edge">
<title>DatarateChannel&#45;&gt;VisualLinks</title>
<path fill="none" stroke="black" d="M73.77,-54.75C81.41,-44.87 93.77,-28.9 101.36,-19.09"/>
</g>
</g>
</svg>
