<?xml version="1.0" encoding="UTF-8" standalone="no"?>
<!DOCTYPE svg PUBLIC "-//W3C//DTD SVG 1.1//EN"
 "http://www.w3.org/Graphics/SVG/1.1/DTD/svg11.dtd">
<!-- Generated by graphviz version 2.43.0 (0)
 -->
<!-- Title: opp Pages: 1 -->
<svg width="218pt" height="137pt"
 viewBox="0.00 0.00 217.50 137.00" xmlns="http://www.w3.org/2000/svg" xmlns:xlink="http://www.w3.org/1999/xlink">
<g id="graph0" class="graph" transform="scale(1 1) rotate(0) translate(4 133)">
<title>opp</title>
<polygon fill="transparent" stroke="transparent" points="-4,4 -4,-133 213.5,-133 213.5,4 -4,4"/>
<!-- Ter_Phy -->
<g id="node1" class="node">
<title>Ter_Phy</title>
<g id="a_node1"><a xlink:href="Nodes._10_Terminal._10_Physical.Ter_Phy.html" xlink:title="Compound Module Ter_Phy" target="_parent">
<polygon fill="#fff700" stroke="black" points="124,-74 70,-74 70,-55 124,-55 124,-74"/>
<text text-anchor="middle" x="97" y="-62" font-family="Helvetica,sans-Serif" font-size="10.00">Ter_Phy</text>
</a>
</g>
</g>
<!-- IdealChannel -->
<g id="node2" class="node">
<title>IdealChannel</title>
<g id="a_node2"><a xlink:href="ned.IdealChannel.html" xlink:title="Channel IdealChannel" target="_parent">
<polygon fill="#d0ffd0" stroke="black" points="80,-19 0,-19 0,0 80,0 80,-19"/>
<text text-anchor="middle" x="40" y="-7" font-family="Helvetica,sans-Serif" font-size="10.00">IdealChannel</text>
</a>
</g>
</g>
<!-- Ter_Phy&#45;&gt;IdealChannel -->
<g id="edge1" class="edge">
<title>Ter_Phy&#45;&gt;IdealChannel</title>
<path fill="none" stroke="black" d="M87.84,-54.98C79.5,-47.23 66.97,-35.58 56.82,-26.14"/>
<polygon fill="black" stroke="black" points="59.03,-23.42 49.32,-19.17 54.26,-28.54 59.03,-23.42"/>
</g>
<!-- Ter_Phy_LoRaRadio -->
<g id="node3" class="node">
<title>Ter_Phy_LoRaRadio</title>
<g id="a_node3"><a xlink:href="Nodes._10_Terminal._10_Physical.Ter_Phy_LoRaRadio.html" xlink:title="Compound Module Ter_Phy_LoRaRadio" target="_parent">
<polygon fill="#fffcaf" stroke="black" points="209.5,-19 98.5,-19 98.5,0 209.5,0 209.5,-19"/>
<text text-anchor="middle" x="154" y="-7" font-family="Helvetica,sans-Serif" font-size="10.00">Ter_Phy_LoRaRadio</text>
</a>
</g>
</g>
<!-- Ter_Phy&#45;&gt;Ter_Phy_LoRaRadio -->
<g id="edge2" class="edge">
<title>Ter_Phy&#45;&gt;Ter_Phy_LoRaRadio</title>
<path fill="none" stroke="black" d="M106.16,-54.98C114.5,-47.23 127.03,-35.58 137.18,-26.14"/>
<polygon fill="black" stroke="black" points="139.74,-28.54 144.68,-19.17 134.97,-23.42 139.74,-28.54"/>
</g>
<!-- Terminal -->
<g id="node4" class="node">
<title>Terminal</title>
<g id="a_node4"><a xlink:href="Nodes._10_Terminal.Terminal.html" xlink:title="Compound Module Terminal" target="_parent">
<polygon fill="#fffcaf" stroke="black" points="126.5,-129 67.5,-129 67.5,-110 126.5,-110 126.5,-129"/>
<text text-anchor="middle" x="97" y="-117" font-family="Helvetica,sans-Serif" font-size="10.00">Terminal</text>
</a>
</g>
</g>
<!-- Terminal&#45;&gt;Ter_Phy -->
<g id="edge3" class="edge">
<title>Terminal&#45;&gt;Ter_Phy</title>
<path fill="none" stroke="black" d="M97,-109.75C97,-102.8 97,-92.85 97,-84.13"/>
<polygon fill="black" stroke="black" points="100.5,-84.09 97,-74.09 93.5,-84.09 100.5,-84.09"/>
</g>
</g>
</svg>
