<?xml version="1.0" encoding="UTF-8" standalone="no"?>
<!DOCTYPE svg PUBLIC "-//W3C//DTD SVG 1.1//EN"
 "http://www.w3.org/Graphics/SVG/1.1/DTD/svg11.dtd">
<!-- Generated by graphviz version 2.43.0 (0)
 -->
<!-- Title: opp Pages: 1 -->
<svg width="212pt" height="137pt"
 viewBox="0.00 0.00 212.00 137.00" xmlns="http://www.w3.org/2000/svg" xmlns:xlink="http://www.w3.org/1999/xlink">
<g id="graph0" class="graph" transform="scale(1 1) rotate(0) translate(4 133)">
<title>opp</title>
<polygon fill="transparent" stroke="transparent" points="-4,4 -4,-133 208,-133 208,4 -4,4"/>
<!-- Sat_Isl_Phy -->
<g id="node1" class="node">
<title>Sat_Isl_Phy</title>
<g id="a_node1"><a xlink:href="Nodes._20_Satellite.ISL._10_Physical.Sat_Isl_Phy.html" xlink:title="Compound Module Sat_Isl_Phy" target="_parent">
<polygon fill="#fff700" stroke="black" points="144,-74 72,-74 72,-55 144,-55 144,-74"/>
<text text-anchor="middle" x="108" y="-62" font-family="Helvetica,sans-Serif" font-size="10.00">Sat_Isl_Phy</text>
</a>
</g>
</g>
<!-- ISLQueueInterface -->
<g id="node2" class="node">
<title>ISLQueueInterface</title>
<g id="a_node2"><a xlink:href="Nodes._20_Satellite.ISL._10_Physical.ISLQueueInterface.html" xlink:title="Compound Module ISLQueueInterface" target="_parent">
<polygon fill="#fffcaf" stroke="black" points="106,-19 0,-19 0,0 106,0 106,-19"/>
<text text-anchor="middle" x="53" y="-7" font-family="Helvetica,sans-Serif" font-size="10.00">ISLQueueInterface</text>
</a>
</g>
</g>
<!-- Sat_Isl_Phy&#45;&gt;ISLQueueInterface -->
<g id="edge1" class="edge">
<title>Sat_Isl_Phy&#45;&gt;ISLQueueInterface</title>
<path fill="none" stroke="black" d="M98.92,-54.75C90.91,-47.03 79.04,-35.6 69.38,-26.28"/>
<polygon fill="black" stroke="black" points="71.54,-23.51 61.91,-19.09 66.69,-28.55 71.54,-23.51"/>
</g>
<!-- IdealChannel -->
<g id="node3" class="node">
<title>IdealChannel</title>
<g id="a_node3"><a xlink:href="ned.IdealChannel.html" xlink:title="Channel IdealChannel" target="_parent">
<polygon fill="#d0ffd0" stroke="black" points="204,-19 124,-19 124,0 204,0 204,-19"/>
<text text-anchor="middle" x="164" y="-7" font-family="Helvetica,sans-Serif" font-size="10.00">IdealChannel</text>
</a>
</g>
</g>
<!-- Sat_Isl_Phy&#45;&gt;IdealChannel -->
<g id="edge2" class="edge">
<title>Sat_Isl_Phy&#45;&gt;IdealChannel</title>
<path fill="none" stroke="black" d="M117,-54.98C125.19,-47.23 137.51,-35.58 147.47,-26.14"/>
<polygon fill="black" stroke="black" points="149.98,-28.59 154.84,-19.17 145.17,-23.5 149.98,-28.59"/>
</g>
<!-- Satellite -->
<g id="node4" class="node">
<title>Satellite</title>
<g id="a_node4"><a xlink:href="Nodes._20_Satellite.Satellite.html" xlink:title="Compound Module Satellite" target="_parent">
<polygon fill="#fffcaf" stroke="black" points="136.5,-129 79.5,-129 79.5,-110 136.5,-110 136.5,-129"/>
<text text-anchor="middle" x="108" y="-117" font-family="Helvetica,sans-Serif" font-size="10.00">Satellite</text>
</a>
</g>
</g>
<!-- Satellite&#45;&gt;Sat_Isl_Phy -->
<g id="edge3" class="edge">
<title>Satellite&#45;&gt;Sat_Isl_Phy</title>
<path fill="none" stroke="black" d="M108,-109.75C108,-102.8 108,-92.85 108,-84.13"/>
<polygon fill="black" stroke="black" points="111.5,-84.09 108,-74.09 104.5,-84.09 111.5,-84.09"/>
</g>
</g>
</svg>
