<?xml version="1.0" encoding="UTF-8" standalone="no"?>
<!DOCTYPE svg PUBLIC "-//W3C//DTD SVG 1.1//EN"
 "http://www.w3.org/Graphics/SVG/1.1/DTD/svg11.dtd">
<!-- Generated by graphviz version 2.43.0 (0)
 -->
<!-- Title: opp Pages: 1 -->
<svg width="340pt" height="137pt"
 viewBox="0.00 0.00 340.00 137.00" xmlns="http://www.w3.org/2000/svg" xmlns:xlink="http://www.w3.org/1999/xlink">
<g id="graph0" class="graph" transform="scale(1 1) rotate(0) translate(4 133)">
<title>opp</title>
<polygon fill="transparent" stroke="transparent" points="-4,4 -4,-133 336,-133 336,4 -4,4"/>
<!-- Sat_Net -->
<g id="node1" class="node">
<title>Sat_Net</title>
<g id="a_node1"><a xlink:href="Nodes._20_Satellite._30_Network.Sat_Net.html" xlink:title="Compound Module Sat_Net" target="_parent">
<polygon fill="#fff700" stroke="black" points="215.5,-74 160.5,-74 160.5,-55 215.5,-55 215.5,-74"/>
<text text-anchor="middle" x="188" y="-62" font-family="Helvetica,sans-Serif" font-size="10.00">Sat_Net</text>
</a>
</g>
</g>
<!-- Sat_Net_PacketHandler -->
<g id="node2" class="node">
<title>Sat_Net_PacketHandler</title>
<g id="a_node2"><a xlink:href="Nodes._20_Satellite._30_Network.Sat_Net_PacketHandler.html" xlink:title="Simple Module Sat_Net_PacketHandler" target="_parent">
<polygon fill="#fffcaf" stroke="black" points="130,-19 0,-19 0,0 130,0 130,-19"/>
<text text-anchor="middle" x="65" y="-7" font-family="Helvetica,sans-Serif" font-size="10.00">Sat_Net_PacketHandler</text>
</a>
</g>
</g>
<!-- Sat_Net&#45;&gt;Sat_Net_PacketHandler -->
<g id="edge1" class="edge">
<title>Sat_Net&#45;&gt;Sat_Net_PacketHandler</title>
<path fill="none" stroke="black" d="M168.24,-54.98C148.27,-46.38 117.2,-32.99 94.35,-23.15"/>
<polygon fill="black" stroke="black" points="95.69,-19.91 85.12,-19.17 92.92,-26.34 95.69,-19.91"/>
</g>
<!-- IdealChannel -->
<g id="node3" class="node">
<title>IdealChannel</title>
<g id="a_node3"><a xlink:href="ned.IdealChannel.html" xlink:title="Channel IdealChannel" target="_parent">
<polygon fill="#d0ffd0" stroke="black" points="228,-19 148,-19 148,0 228,0 228,-19"/>
<text text-anchor="middle" x="188" y="-7" font-family="Helvetica,sans-Serif" font-size="10.00">IdealChannel</text>
</a>
</g>
</g>
<!-- Sat_Net&#45;&gt;IdealChannel -->
<g id="edge2" class="edge">
<title>Sat_Net&#45;&gt;IdealChannel</title>
<path fill="none" stroke="black" d="M188,-54.75C188,-47.8 188,-37.85 188,-29.13"/>
<polygon fill="black" stroke="black" points="191.5,-29.09 188,-19.09 184.5,-29.09 191.5,-29.09"/>
</g>
<!-- Base_IRouting -->
<g id="node4" class="node">
<title>Base_IRouting</title>
<g id="a_node4"><a xlink:href="Global.Base._30_Network.Base_IRouting.html" xlink:title="Module Interface Base_IRouting" target="_parent">
<polygon fill="#fffcaf" stroke="black" stroke-dasharray="5,2" points="332,-19 246,-19 246,0 332,0 332,-19"/>
<text text-anchor="middle" x="289" y="-7" font-family="Helvetica,sans-Serif" font-size="10.00">Base_IRouting</text>
</a>
</g>
</g>
<!-- Sat_Net&#45;&gt;Base_IRouting -->
<g id="edge3" class="edge">
<title>Sat_Net&#45;&gt;Base_IRouting</title>
<path fill="none" stroke="black" d="M204.23,-54.98C220.18,-46.61 244.78,-33.7 263.38,-23.95"/>
<polygon fill="black" stroke="black" points="265.25,-26.92 272.48,-19.17 262,-20.72 265.25,-26.92"/>
</g>
<!-- Satellite -->
<g id="node5" class="node">
<title>Satellite</title>
<g id="a_node5"><a xlink:href="Nodes._20_Satellite.Satellite.html" xlink:title="Compound Module Satellite" target="_parent">
<polygon fill="#fffcaf" stroke="black" points="216.5,-129 159.5,-129 159.5,-110 216.5,-110 216.5,-129"/>
<text text-anchor="middle" x="188" y="-117" font-family="Helvetica,sans-Serif" font-size="10.00">Satellite</text>
</a>
</g>
</g>
<!-- Satellite&#45;&gt;Sat_Net -->
<g id="edge4" class="edge">
<title>Satellite&#45;&gt;Sat_Net</title>
<path fill="none" stroke="black" d="M188,-109.75C188,-102.8 188,-92.85 188,-84.13"/>
<polygon fill="black" stroke="black" points="191.5,-84.09 188,-74.09 184.5,-84.09 191.5,-84.09"/>
</g>
</g>
</svg>
