<?xml version="1.0" encoding="UTF-8" standalone="no"?>
<!DOCTYPE svg PUBLIC "-//W3C//DTD SVG 1.1//EN"
 "http://www.w3.org/Graphics/SVG/1.1/DTD/svg11.dtd">
<!-- Generated by graphviz version 2.43.0 (0)
 -->
<!-- Title: opp Pages: 1 -->
<svg width="132pt" height="137pt"
 viewBox="0.00 0.00 132.00 137.00" xmlns="http://www.w3.org/2000/svg" xmlns:xlink="http://www.w3.org/1999/xlink">
<g id="graph0" class="graph" transform="scale(1 1) rotate(0) translate(4 133)">
<title>opp</title>
<polygon fill="transparent" stroke="transparent" points="-4,4 -4,-133 128,-133 128,4 -4,4"/>
<!-- Ter_Phy_LoRaRadio -->
<g id="node1" class="node">
<title>Ter_Phy_LoRaRadio</title>
<g id="a_node1"><a xlink:href="Nodes._10_Terminal._10_Physical.Ter_Phy_LoRaRadio.html" xlink:title="Compound Module Ter_Phy_LoRaRadio" target="_parent">
<polygon fill="#fff700" stroke="black" points="117.5,-74 6.5,-74 6.5,-55 117.5,-55 117.5,-74"/>
<text text-anchor="middle" x="62" y="-62" font-family="Helvetica,sans-Serif" font-size="10.00">Ter_Phy_LoRaRadio</text>
</a>
</g>
</g>
<!-- IdealEpEnergyStorage -->
<g id="node2" class="node">
<title>IdealEpEnergyStorage</title>
<g id="a_node2"><a xlink:href="../../../inet4.3/doc/neddoc/inet.power.storage.IdealEpEnergyStorage.html" xlink:title="Simple Module IdealEpEnergyStorage" target="_parent">
<polygon fill="#fffcaf" stroke="black" points="124,-19 0,-19 0,0 124,0 124,-19"/>
<text text-anchor="middle" x="62" y="-7" font-family="Helvetica,sans-Serif" font-size="10.00">IdealEpEnergyStorage</text>
</a>
</g>
</g>
<!-- Ter_Phy_LoRaRadio&#45;&gt;IdealEpEnergyStorage -->
<g id="edge1" class="edge">
<title>Ter_Phy_LoRaRadio&#45;&gt;IdealEpEnergyStorage</title>
<path fill="none" stroke="black" d="M62,-54.75C62,-47.8 62,-37.85 62,-29.13"/>
<polygon fill="black" stroke="black" points="65.5,-29.09 62,-19.09 58.5,-29.09 65.5,-29.09"/>
</g>
<!-- Ter_Phy -->
<g id="node3" class="node">
<title>Ter_Phy</title>
<g id="a_node3"><a xlink:href="Nodes._10_Terminal._10_Physical.Ter_Phy.html" xlink:title="Compound Module Ter_Phy" target="_parent">
<polygon fill="#fffcaf" stroke="black" points="89,-129 35,-129 35,-110 89,-110 89,-129"/>
<text text-anchor="middle" x="62" y="-117" font-family="Helvetica,sans-Serif" font-size="10.00">Ter_Phy</text>
</a>
</g>
</g>
<!-- Ter_Phy&#45;&gt;Ter_Phy_LoRaRadio -->
<g id="edge2" class="edge">
<title>Ter_Phy&#45;&gt;Ter_Phy_LoRaRadio</title>
<path fill="none" stroke="black" d="M62,-109.75C62,-102.8 62,-92.85 62,-84.13"/>
<polygon fill="black" stroke="black" points="65.5,-84.09 62,-74.09 58.5,-84.09 65.5,-84.09"/>
</g>
</g>
</svg>
