<?xml version="1.0" encoding="UTF-8" standalone="no"?>
<!DOCTYPE svg PUBLIC "-//W3C//DTD SVG 1.1//EN"
 "http://www.w3.org/Graphics/SVG/1.1/DTD/svg11.dtd">
<!-- Generated by graphviz version 2.43.0 (0)
 -->
<!-- Title: opp Pages: 1 -->
<svg width="525pt" height="137pt"
 viewBox="0.00 0.00 525.00 137.00" xmlns="http://www.w3.org/2000/svg" xmlns:xlink="http://www.w3.org/1999/xlink">
<g id="graph0" class="graph" transform="scale(1 1) rotate(0) translate(4 133)">
<title>opp</title>
<polygon fill="transparent" stroke="transparent" points="-4,4 -4,-133 521,-133 521,4 -4,4"/>
<!-- Terminal -->
<g id="node1" class="node">
<title>Terminal</title>
<g id="a_node1"><a xlink:href="Nodes._10_Terminal.Terminal.html" xlink:title="Compound Module Terminal" target="_parent">
<polygon fill="#fff700" stroke="black" points="300,-74 241,-74 241,-55 300,-55 300,-74"/>
<text text-anchor="middle" x="270.5" y="-62" font-family="Helvetica,sans-Serif" font-size="10.00">Terminal</text>
</a>
</g>
</g>
<!-- Ter_App -->
<g id="node2" class="node">
<title>Ter_App</title>
<g id="a_node2"><a xlink:href="Nodes._10_Terminal._40_Application.Ter_App.html" xlink:title="Simple Module Ter_App" target="_parent">
<polygon fill="#fffcaf" stroke="black" points="55,-19 0,-19 0,0 55,0 55,-19"/>
<text text-anchor="middle" x="27.5" y="-7" font-family="Helvetica,sans-Serif" font-size="10.00">Ter_App</text>
</a>
</g>
</g>
<!-- Terminal&#45;&gt;Ter_App -->
<g id="edge1" class="edge">
<title>Terminal&#45;&gt;Ter_App</title>
<path fill="none" stroke="black" d="M240.79,-57.21C202.61,-49.1 134,-34.43 65.48,-19.19"/>
<polygon fill="black" stroke="black" points="65.89,-15.7 55.37,-16.94 64.37,-22.53 65.89,-15.7"/>
</g>
<!-- Ter_Dlk -->
<g id="node3" class="node">
<title>Ter_Dlk</title>
<g id="a_node3"><a xlink:href="Nodes._10_Terminal._20_Data_Link.Ter_Dlk.html" xlink:title="Compound Module Ter_Dlk" target="_parent">
<polygon fill="#fffcaf" stroke="black" points="127.5,-19 73.5,-19 73.5,0 127.5,0 127.5,-19"/>
<text text-anchor="middle" x="100.5" y="-7" font-family="Helvetica,sans-Serif" font-size="10.00">Ter_Dlk</text>
</a>
</g>
</g>
<!-- Terminal&#45;&gt;Ter_Dlk -->
<g id="edge2" class="edge">
<title>Terminal&#45;&gt;Ter_Dlk</title>
<path fill="none" stroke="black" d="M243.19,-54.98C214.56,-46.06 169.41,-31.98 137.58,-22.06"/>
<polygon fill="black" stroke="black" points="138.33,-18.63 127.75,-18.99 136.25,-25.31 138.33,-18.63"/>
</g>
<!-- IdealChannel -->
<g id="node4" class="node">
<title>IdealChannel</title>
<g id="a_node4"><a xlink:href="ned.IdealChannel.html" xlink:title="Channel IdealChannel" target="_parent">
<polygon fill="#d0ffd0" stroke="black" points="225.5,-19 145.5,-19 145.5,0 225.5,0 225.5,-19"/>
<text text-anchor="middle" x="185.5" y="-7" font-family="Helvetica,sans-Serif" font-size="10.00">IdealChannel</text>
</a>
</g>
</g>
<!-- Terminal&#45;&gt;IdealChannel -->
<g id="edge3" class="edge">
<title>Terminal&#45;&gt;IdealChannel</title>
<path fill="none" stroke="black" d="M256.84,-54.98C243.66,-46.77 223.47,-34.18 207.93,-24.49"/>
<polygon fill="black" stroke="black" points="209.74,-21.49 199.41,-19.17 206.04,-27.43 209.74,-21.49"/>
</g>
<!-- Ter_Phy -->
<g id="node5" class="node">
<title>Ter_Phy</title>
<g id="a_node5"><a xlink:href="Nodes._10_Terminal._10_Physical.Ter_Phy.html" xlink:title="Compound Module Ter_Phy" target="_parent">
<polygon fill="#fffcaf" stroke="black" points="297.5,-19 243.5,-19 243.5,0 297.5,0 297.5,-19"/>
<text text-anchor="middle" x="270.5" y="-7" font-family="Helvetica,sans-Serif" font-size="10.00">Ter_Phy</text>
</a>
</g>
</g>
<!-- Terminal&#45;&gt;Ter_Phy -->
<g id="edge4" class="edge">
<title>Terminal&#45;&gt;Ter_Phy</title>
<path fill="none" stroke="black" d="M270.5,-54.75C270.5,-47.8 270.5,-37.85 270.5,-29.13"/>
<polygon fill="black" stroke="black" points="274,-29.09 270.5,-19.09 267,-29.09 274,-29.09"/>
</g>
<!-- Ter_Net -->
<g id="node6" class="node">
<title>Ter_Net</title>
<g id="a_node6"><a xlink:href="Nodes._10_Terminal._30_Network.Ter_Net.html" xlink:title="Compound Module Ter_Net" target="_parent">
<polygon fill="#fffcaf" stroke="black" points="369.5,-19 315.5,-19 315.5,0 369.5,0 369.5,-19"/>
<text text-anchor="middle" x="342.5" y="-7" font-family="Helvetica,sans-Serif" font-size="10.00">Ter_Net</text>
</a>
</g>
</g>
<!-- Terminal&#45;&gt;Ter_Net -->
<g id="edge5" class="edge">
<title>Terminal&#45;&gt;Ter_Net</title>
<path fill="none" stroke="black" d="M282.07,-54.98C292.92,-47 309.38,-34.88 322.38,-25.31"/>
<polygon fill="black" stroke="black" points="324.74,-27.92 330.72,-19.17 320.59,-22.28 324.74,-27.92"/>
</g>
<!-- Ter_Ene -->
<g id="node7" class="node">
<title>Ter_Ene</title>
<g id="a_node7"><a xlink:href="Nodes._10_Terminal._50_Energy.Ter_Ene.html" xlink:title="Compound Module Ter_Ene" target="_parent">
<polygon fill="#fffcaf" stroke="black" points="441.5,-19 387.5,-19 387.5,0 441.5,0 441.5,-19"/>
<text text-anchor="middle" x="414.5" y="-7" font-family="Helvetica,sans-Serif" font-size="10.00">Ter_Ene</text>
</a>
</g>
</g>
<!-- Terminal&#45;&gt;Ter_Ene -->
<g id="edge6" class="edge">
<title>Terminal&#45;&gt;Ter_Ene</title>
<path fill="none" stroke="black" d="M293.64,-54.98C317.32,-46.27 354.37,-32.63 381.21,-22.75"/>
<polygon fill="black" stroke="black" points="382.77,-25.91 390.94,-19.17 380.35,-19.34 382.77,-25.91"/>
</g>
<!-- Ter_Mob -->
<g id="node8" class="node">
<title>Ter_Mob</title>
<g id="a_node8"><a xlink:href="Nodes._10_Terminal._60_Mobility.Ter_Mob.html" xlink:title="Simple Module Ter_Mob" target="_parent">
<polygon fill="#fffcaf" stroke="black" points="517,-19 460,-19 460,0 517,0 517,-19"/>
<text text-anchor="middle" x="488.5" y="-7" font-family="Helvetica,sans-Serif" font-size="10.00">Ter_Mob</text>
</a>
</g>
</g>
<!-- Terminal&#45;&gt;Ter_Mob -->
<g id="edge7" class="edge">
<title>Terminal&#45;&gt;Ter_Mob</title>
<path fill="none" stroke="black" d="M300.35,-56.24C339.22,-46.79 407.21,-30.26 449.94,-19.88"/>
<polygon fill="black" stroke="black" points="450.81,-23.27 459.7,-17.5 449.16,-16.46 450.81,-23.27"/>
</g>
<!-- Florasat -->
<g id="node9" class="node">
<title>Florasat</title>
<g id="a_node9"><a xlink:href="Florasat.Florasat.html" xlink:title="Network Florasat" target="_parent">
<polygon fill="#d0d0ff" stroke="black" points="298.5,-129 242.5,-129 242.5,-110 298.5,-110 298.5,-129"/>
<text text-anchor="middle" x="270.5" y="-117" font-family="Helvetica,sans-Serif" font-size="10.00">Florasat</text>
</a>
</g>
</g>
<!-- Florasat&#45;&gt;Terminal -->
<g id="edge8" class="edge">
<title>Florasat&#45;&gt;Terminal</title>
<path fill="none" stroke="black" d="M270.5,-109.75C270.5,-102.8 270.5,-92.85 270.5,-84.13"/>
<polygon fill="black" stroke="black" points="274,-84.09 270.5,-74.09 267,-84.09 274,-84.09"/>
</g>
</g>
</svg>
