<?xml version="1.0" encoding="UTF-8" standalone="no"?>
<!DOCTYPE svg PUBLIC "-//W3C//DTD SVG 1.1//EN"
 "http://www.w3.org/Graphics/SVG/1.1/DTD/svg11.dtd">
<!-- Generated by graphviz version 2.43.0 (0)
 -->
<!-- Title: opp Pages: 1 -->
<svg width="214pt" height="137pt"
 viewBox="0.00 0.00 213.50 137.00" xmlns="http://www.w3.org/2000/svg" xmlns:xlink="http://www.w3.org/1999/xlink">
<g id="graph0" class="graph" transform="scale(1 1) rotate(0) translate(4 133)">
<title>opp</title>
<polygon fill="transparent" stroke="transparent" points="-4,4 -4,-133 209.5,-133 209.5,4 -4,4"/>
<!-- Sat_Dsl_Dlk -->
<g id="node1" class="node">
<title>Sat_Dsl_Dlk</title>
<g id="a_node1"><a xlink:href="Nodes._20_Satellite.DSL._20_Data_Link.Sat_Dsl_Dlk.html" xlink:title="Compound Module Sat_Dsl_Dlk" target="_parent">
<polygon fill="#fff700" stroke="black" points="147,-74 72,-74 72,-55 147,-55 147,-74"/>
<text text-anchor="middle" x="109.5" y="-62" font-family="Helvetica,sans-Serif" font-size="10.00">Sat_Dsl_Dlk</text>
</a>
</g>
</g>
<!-- Sat_Dsl_Dlk_kMac -->
<g id="node2" class="node">
<title>Sat_Dsl_Dlk_kMac</title>
<g id="a_node2"><a xlink:href="Nodes._20_Satellite.DSL._20_Data_Link.Sat_Dsl_Dlk_kMac.html" xlink:title="Compound Module Sat_Dsl_Dlk_kMac" target="_parent">
<polygon fill="#fffcaf" stroke="black" points="107,-19 0,-19 0,0 107,0 107,-19"/>
<text text-anchor="middle" x="53.5" y="-7" font-family="Helvetica,sans-Serif" font-size="10.00">Sat_Dsl_Dlk_kMac</text>
</a>
</g>
</g>
<!-- Sat_Dsl_Dlk&#45;&gt;Sat_Dsl_Dlk_kMac -->
<g id="edge1" class="edge">
<title>Sat_Dsl_Dlk&#45;&gt;Sat_Dsl_Dlk_kMac</title>
<path fill="none" stroke="black" d="M100.5,-54.98C92.31,-47.23 79.99,-35.58 70.03,-26.14"/>
<polygon fill="black" stroke="black" points="72.33,-23.5 62.66,-19.17 67.52,-28.59 72.33,-23.5"/>
</g>
<!-- IdealChannel -->
<g id="node3" class="node">
<title>IdealChannel</title>
<g id="a_node3"><a xlink:href="ned.IdealChannel.html" xlink:title="Channel IdealChannel" target="_parent">
<polygon fill="#d0ffd0" stroke="black" points="205.5,-19 125.5,-19 125.5,0 205.5,0 205.5,-19"/>
<text text-anchor="middle" x="165.5" y="-7" font-family="Helvetica,sans-Serif" font-size="10.00">IdealChannel</text>
</a>
</g>
</g>
<!-- Sat_Dsl_Dlk&#45;&gt;IdealChannel -->
<g id="edge2" class="edge">
<title>Sat_Dsl_Dlk&#45;&gt;IdealChannel</title>
<path fill="none" stroke="black" d="M118.5,-54.98C126.69,-47.23 139.01,-35.58 148.97,-26.14"/>
<polygon fill="black" stroke="black" points="151.48,-28.59 156.34,-19.17 146.67,-23.5 151.48,-28.59"/>
</g>
<!-- Satellite -->
<g id="node4" class="node">
<title>Satellite</title>
<g id="a_node4"><a xlink:href="Nodes._20_Satellite.Satellite.html" xlink:title="Compound Module Satellite" target="_parent">
<polygon fill="#fffcaf" stroke="black" points="138,-129 81,-129 81,-110 138,-110 138,-129"/>
<text text-anchor="middle" x="109.5" y="-117" font-family="Helvetica,sans-Serif" font-size="10.00">Satellite</text>
</a>
</g>
</g>
<!-- Satellite&#45;&gt;Sat_Dsl_Dlk -->
<g id="edge3" class="edge">
<title>Satellite&#45;&gt;Sat_Dsl_Dlk</title>
<path fill="none" stroke="black" d="M109.5,-109.75C109.5,-102.8 109.5,-92.85 109.5,-84.13"/>
<polygon fill="black" stroke="black" points="113,-84.09 109.5,-74.09 106,-84.09 113,-84.09"/>
</g>
</g>
</svg>
