<?xml version="1.0" encoding="UTF-8" standalone="no"?>
<!DOCTYPE svg PUBLIC "-//W3C//DTD SVG 1.1//EN"
 "http://www.w3.org/Graphics/SVG/1.1/DTD/svg11.dtd">
<!-- Generated by graphviz version 2.43.0 (0)
 -->
<!-- Title: opp Pages: 1 -->
<svg width="204pt" height="82pt"
 viewBox="0.00 0.00 204.00 82.00" xmlns="http://www.w3.org/2000/svg" xmlns:xlink="http://www.w3.org/1999/xlink">
<g id="graph0" class="graph" transform="scale(1 1) rotate(0) translate(4 78)">
<title>opp</title>
<polygon fill="transparent" stroke="transparent" points="-4,4 -4,-78 200,-78 200,4 -4,4"/>
<!-- Sta_Net -->
<g id="node1" class="node">
<title>Sta_Net</title>
<g id="a_node1"><a xlink:href="Nodes._30_Station._30_Network.Sta_Net.html" xlink:title="Compound Module Sta_Net" target="_parent">
<polygon fill="#fff700" stroke="black" points="126.5,-19 71.5,-19 71.5,0 126.5,0 126.5,-19"/>
<text text-anchor="middle" x="99" y="-7" font-family="Helvetica,sans-Serif" font-size="10.00">Sta_Net</text>
</a>
</g>
</g>
<!-- LayerForwarder -->
<g id="node2" class="node">
<title>LayerForwarder</title>
<g id="a_node2"><a xlink:href="Global.Utilities.LayerForwarder.html" xlink:title="Simple Module LayerForwarder" target="_parent">
<polygon fill="#fffcaf" stroke="black" points="92,-74 0,-74 0,-55 92,-55 92,-74"/>
<text text-anchor="middle" x="46" y="-62" font-family="Helvetica,sans-Serif" font-size="10.00">LayerForwarder</text>
</a>
</g>
</g>
<!-- LayerForwarder&#45;&gt;Sta_Net -->
<g id="edge1" class="edge">
<title>LayerForwarder&#45;&gt;Sta_Net</title>
<path fill="none" stroke="black" d="M54.75,-54.75C64.63,-44.87 80.6,-28.9 90.41,-19.09"/>
</g>
<!-- INetworkNode -->
<g id="node3" class="node">
<title>INetworkNode</title>
<g id="a_node3"><a xlink:href="../../../inet4.3/doc/neddoc/inet.node.inet.INetworkNode.html" xlink:title="Module Interface INetworkNode" target="_parent">
<polygon fill="#fffcaf" stroke="black" stroke-dasharray="5,2" points="196,-74 110,-74 110,-55 196,-55 196,-74"/>
<text text-anchor="middle" x="153" y="-62" font-family="Helvetica,sans-Serif" font-size="10.00">INetworkNode</text>
</a>
</g>
</g>
<!-- INetworkNode&#45;&gt;Sta_Net -->
<g id="edge2" class="edge">
<title>INetworkNode&#45;&gt;Sta_Net</title>
<path fill="none" stroke="black" stroke-dasharray="5,2" d="M144.08,-54.75C134.02,-44.87 117.75,-28.9 107.75,-19.09"/>
</g>
</g>
</svg>
