<?xml version="1.0" encoding="UTF-8" standalone="no"?>
<!DOCTYPE svg PUBLIC "-//W3C//DTD SVG 1.1//EN"
 "http://www.w3.org/Graphics/SVG/1.1/DTD/svg11.dtd">
<!-- Generated by graphviz version 2.43.0 (0)
 -->
<!-- Title: opp Pages: 1 -->
<svg width="286pt" height="137pt"
 viewBox="0.00 0.00 286.00 137.00" xmlns="http://www.w3.org/2000/svg" xmlns:xlink="http://www.w3.org/1999/xlink">
<g id="graph0" class="graph" transform="scale(1 1) rotate(0) translate(4 133)">
<title>opp</title>
<polygon fill="transparent" stroke="transparent" points="-4,4 -4,-133 282,-133 282,4 -4,4"/>
<!-- ISLQueueInterface -->
<g id="node1" class="node">
<title>ISLQueueInterface</title>
<g id="a_node1"><a xlink:href="Nodes._20_Satellite.ISL._10_Physical.ISLQueueInterface.html" xlink:title="Compound Module ISLQueueInterface" target="_parent">
<polygon fill="#fff700" stroke="black" points="189,-74 83,-74 83,-55 189,-55 189,-74"/>
<text text-anchor="middle" x="136" y="-62" font-family="Helvetica,sans-Serif" font-size="10.00">ISLQueueInterface</text>
</a>
</g>
</g>
<!-- ISLInterface -->
<g id="node2" class="node">
<title>ISLInterface</title>
<g id="a_node2"><a xlink:href="Nodes._20_Satellite.ISL._10_Physical.ISLInterface.html" xlink:title="Simple Module ISLInterface" target="_parent">
<polygon fill="#fffcaf" stroke="black" points="74,-19 0,-19 0,0 74,0 74,-19"/>
<text text-anchor="middle" x="37" y="-7" font-family="Helvetica,sans-Serif" font-size="10.00">ISLInterface</text>
</a>
</g>
</g>
<!-- ISLQueueInterface&#45;&gt;ISLInterface -->
<g id="edge1" class="edge">
<title>ISLQueueInterface&#45;&gt;ISLInterface</title>
<path fill="none" stroke="black" d="M120.09,-54.98C104.45,-46.61 80.34,-33.7 62.12,-23.95"/>
<polygon fill="black" stroke="black" points="63.66,-20.8 53.2,-19.17 60.36,-26.98 63.66,-20.8"/>
</g>
<!-- DropTailQueue -->
<g id="node3" class="node">
<title>DropTailQueue</title>
<g id="a_node3"><a xlink:href="../../../inet4.3/doc/neddoc/inet.queueing.queue.DropTailQueue.html" xlink:title="Simple Module DropTailQueue" target="_parent">
<polygon fill="#fffcaf" stroke="black" points="180,-19 92,-19 92,0 180,0 180,-19"/>
<text text-anchor="middle" x="136" y="-7" font-family="Helvetica,sans-Serif" font-size="10.00">DropTailQueue</text>
</a>
</g>
</g>
<!-- ISLQueueInterface&#45;&gt;DropTailQueue -->
<g id="edge2" class="edge">
<title>ISLQueueInterface&#45;&gt;DropTailQueue</title>
<path fill="none" stroke="black" d="M136,-54.75C136,-47.8 136,-37.85 136,-29.13"/>
<polygon fill="black" stroke="black" points="139.5,-29.09 136,-19.09 132.5,-29.09 139.5,-29.09"/>
</g>
<!-- IdealChannel -->
<g id="node4" class="node">
<title>IdealChannel</title>
<g id="a_node4"><a xlink:href="ned.IdealChannel.html" xlink:title="Channel IdealChannel" target="_parent">
<polygon fill="#d0ffd0" stroke="black" points="278,-19 198,-19 198,0 278,0 278,-19"/>
<text text-anchor="middle" x="238" y="-7" font-family="Helvetica,sans-Serif" font-size="10.00">IdealChannel</text>
</a>
</g>
</g>
<!-- ISLQueueInterface&#45;&gt;IdealChannel -->
<g id="edge3" class="edge">
<title>ISLQueueInterface&#45;&gt;IdealChannel</title>
<path fill="none" stroke="black" d="M152.39,-54.98C168.57,-46.57 193.57,-33.59 212.38,-23.81"/>
<polygon fill="black" stroke="black" points="214.05,-26.89 221.31,-19.17 210.83,-20.68 214.05,-26.89"/>
</g>
<!-- Sat_Isl_Phy -->
<g id="node5" class="node">
<title>Sat_Isl_Phy</title>
<g id="a_node5"><a xlink:href="Nodes._20_Satellite.ISL._10_Physical.Sat_Isl_Phy.html" xlink:title="Compound Module Sat_Isl_Phy" target="_parent">
<polygon fill="#fffcaf" stroke="black" points="172,-129 100,-129 100,-110 172,-110 172,-129"/>
<text text-anchor="middle" x="136" y="-117" font-family="Helvetica,sans-Serif" font-size="10.00">Sat_Isl_Phy</text>
</a>
</g>
</g>
<!-- Sat_Isl_Phy&#45;&gt;ISLQueueInterface -->
<g id="edge4" class="edge">
<title>Sat_Isl_Phy&#45;&gt;ISLQueueInterface</title>
<path fill="none" stroke="black" d="M136,-109.75C136,-102.8 136,-92.85 136,-84.13"/>
<polygon fill="black" stroke="black" points="139.5,-84.09 136,-74.09 132.5,-84.09 139.5,-84.09"/>
</g>
</g>
</svg>
