<?xml version="1.0" encoding="UTF-8" standalone="no"?>
<!DOCTYPE svg PUBLIC "-//W3C//DTD SVG 1.1//EN"
 "http://www.w3.org/Graphics/SVG/1.1/DTD/svg11.dtd">
<!-- Generated by graphviz version 2.43.0 (0)
 -->
<!-- Title: opp Pages: 1 -->
<svg width="849pt" height="137pt"
 viewBox="0.00 0.00 849.00 137.00" xmlns="http://www.w3.org/2000/svg" xmlns:xlink="http://www.w3.org/1999/xlink">
<g id="graph0" class="graph" transform="scale(1 1) rotate(0) translate(4 133)">
<title>opp</title>
<polygon fill="transparent" stroke="transparent" points="-4,4 -4,-133 845,-133 845,4 -4,4"/>
<!-- Station -->
<g id="node1" class="node">
<title>Station</title>
<g id="a_node1"><a xlink:href="Nodes._30_Station.Station.html" xlink:title="Compound Module Station" target="_parent">
<polygon fill="#fff700" stroke="black" points="436.5,-74 382.5,-74 382.5,-55 436.5,-55 436.5,-74"/>
<text text-anchor="middle" x="409.5" y="-62" font-family="Helvetica,sans-Serif" font-size="10.00">Station</text>
</a>
</g>
</g>
<!-- Sta_Net -->
<g id="node2" class="node">
<title>Sta_Net</title>
<g id="a_node2"><a xlink:href="Nodes._30_Station._30_Network.Sta_Net.html" xlink:title="Compound Module Sta_Net" target="_parent">
<polygon fill="#fffcaf" stroke="black" points="55,-19 0,-19 0,0 55,0 55,-19"/>
<text text-anchor="middle" x="27.5" y="-7" font-family="Helvetica,sans-Serif" font-size="10.00">Sta_Net</text>
</a>
</g>
</g>
<!-- Station&#45;&gt;Sta_Net -->
<g id="edge1" class="edge">
<title>Station&#45;&gt;Sta_Net</title>
<path fill="none" stroke="black" d="M382.08,-60.88C325.04,-55.24 189.32,-40.8 65.36,-18.99"/>
<polygon fill="black" stroke="black" points="65.78,-15.5 55.32,-17.2 64.55,-22.4 65.78,-15.5"/>
</g>
<!-- Sta_Mob_StationMobility -->
<g id="node3" class="node">
<title>Sta_Mob_StationMobility</title>
<g id="a_node3"><a xlink:href="Nodes._30_Station._60_Mobility.Sta_Mob_StationMobility.html" xlink:title="Simple Module Sta_Mob_StationMobility" target="_parent">
<polygon fill="#fffcaf" stroke="black" points="211.5,-19 73.5,-19 73.5,0 211.5,0 211.5,-19"/>
<text text-anchor="middle" x="142.5" y="-7" font-family="Helvetica,sans-Serif" font-size="10.00">Sta_Mob_StationMobility</text>
</a>
</g>
</g>
<!-- Station&#45;&gt;Sta_Mob_StationMobility -->
<g id="edge2" class="edge">
<title>Station&#45;&gt;Sta_Mob_StationMobility</title>
<path fill="none" stroke="black" d="M382.43,-58.13C338.75,-49.46 251.92,-32.22 195.57,-21.04"/>
<polygon fill="black" stroke="black" points="195.91,-17.53 185.42,-19.02 194.55,-24.4 195.91,-17.53"/>
</g>
<!-- StationDataLinkLayer -->
<g id="node4" class="node">
<title>StationDataLinkLayer</title>
<g id="a_node4"><a xlink:href="Nodes._30_Station._20_Data_Link.StationDataLinkLayer.html" xlink:title="Simple Module StationDataLinkLayer" target="_parent">
<polygon fill="#fffcaf" stroke="black" points="351.5,-19 229.5,-19 229.5,0 351.5,0 351.5,-19"/>
<text text-anchor="middle" x="290.5" y="-7" font-family="Helvetica,sans-Serif" font-size="10.00">StationDataLinkLayer</text>
</a>
</g>
</g>
<!-- Station&#45;&gt;StationDataLinkLayer -->
<g id="edge3" class="edge">
<title>Station&#45;&gt;StationDataLinkLayer</title>
<path fill="none" stroke="black" d="M390.38,-54.98C371.15,-46.42 341.27,-33.11 319.19,-23.28"/>
<polygon fill="black" stroke="black" points="320.53,-20.04 309.97,-19.17 317.68,-26.44 320.53,-20.04"/>
</g>
<!-- IdealChannel -->
<g id="node5" class="node">
<title>IdealChannel</title>
<g id="a_node5"><a xlink:href="ned.IdealChannel.html" xlink:title="Channel IdealChannel" target="_parent">
<polygon fill="#d0ffd0" stroke="black" points="449.5,-19 369.5,-19 369.5,0 449.5,0 449.5,-19"/>
<text text-anchor="middle" x="409.5" y="-7" font-family="Helvetica,sans-Serif" font-size="10.00">IdealChannel</text>
</a>
</g>
</g>
<!-- Station&#45;&gt;IdealChannel -->
<g id="edge4" class="edge">
<title>Station&#45;&gt;IdealChannel</title>
<path fill="none" stroke="black" d="M409.5,-54.75C409.5,-47.8 409.5,-37.85 409.5,-29.13"/>
<polygon fill="black" stroke="black" points="413,-29.09 409.5,-19.09 406,-29.09 413,-29.09"/>
</g>
<!-- StationApplicationLayer -->
<g id="node6" class="node">
<title>StationApplicationLayer</title>
<g id="a_node6"><a xlink:href="Nodes._30_Station._40_Application.StationApplicationLayer.html" xlink:title="Simple Module StationApplicationLayer" target="_parent">
<polygon fill="#fffcaf" stroke="black" points="601,-19 468,-19 468,0 601,0 601,-19"/>
<text text-anchor="middle" x="534.5" y="-7" font-family="Helvetica,sans-Serif" font-size="10.00">StationApplicationLayer</text>
</a>
</g>
</g>
<!-- Station&#45;&gt;StationApplicationLayer -->
<g id="edge5" class="edge">
<title>Station&#45;&gt;StationApplicationLayer</title>
<path fill="none" stroke="black" d="M429.58,-54.98C449.87,-46.38 481.46,-32.99 504.67,-23.15"/>
<polygon fill="black" stroke="black" points="506.21,-26.3 514.05,-19.17 503.48,-19.85 506.21,-26.3"/>
</g>
<!-- StationPhysicalLayer -->
<g id="node7" class="node">
<title>StationPhysicalLayer</title>
<g id="a_node7"><a xlink:href="Nodes._30_Station._10_Physical.StationPhysicalLayer.html" xlink:title="Simple Module StationPhysicalLayer" target="_parent">
<polygon fill="#fffcaf" stroke="black" points="738,-19 619,-19 619,0 738,0 738,-19"/>
<text text-anchor="middle" x="678.5" y="-7" font-family="Helvetica,sans-Serif" font-size="10.00">StationPhysicalLayer</text>
</a>
</g>
</g>
<!-- Station&#45;&gt;StationPhysicalLayer -->
<g id="edge6" class="edge">
<title>Station&#45;&gt;StationPhysicalLayer</title>
<path fill="none" stroke="black" d="M436.52,-58.18C480.51,-49.51 568.4,-32.19 625.27,-20.99"/>
<polygon fill="black" stroke="black" points="626.03,-24.41 635.16,-19.04 624.67,-17.54 626.03,-24.41"/>
</g>
<!-- StationEnergy -->
<g id="node8" class="node">
<title>StationEnergy</title>
<g id="a_node8"><a xlink:href="Nodes._30_Station._50_Energy.StationEnergy.html" xlink:title="Compound Module StationEnergy" target="_parent">
<polygon fill="#fffcaf" stroke="black" points="841,-19 756,-19 756,0 841,0 841,-19"/>
<text text-anchor="middle" x="798.5" y="-7" font-family="Helvetica,sans-Serif" font-size="10.00">StationEnergy</text>
</a>
</g>
</g>
<!-- Station&#45;&gt;StationEnergy -->
<g id="edge7" class="edge">
<title>Station&#45;&gt;StationEnergy</title>
<path fill="none" stroke="black" d="M436.71,-60.24C492.62,-53.47 624.69,-37.12 745.76,-19.22"/>
<polygon fill="black" stroke="black" points="746.56,-22.64 755.94,-17.71 745.53,-15.71 746.56,-22.64"/>
</g>
<!-- Florasat -->
<g id="node9" class="node">
<title>Florasat</title>
<g id="a_node9"><a xlink:href="Florasat.Florasat.html" xlink:title="Network Florasat" target="_parent">
<polygon fill="#d0d0ff" stroke="black" points="437.5,-129 381.5,-129 381.5,-110 437.5,-110 437.5,-129"/>
<text text-anchor="middle" x="409.5" y="-117" font-family="Helvetica,sans-Serif" font-size="10.00">Florasat</text>
</a>
</g>
</g>
<!-- Florasat&#45;&gt;Station -->
<g id="edge8" class="edge">
<title>Florasat&#45;&gt;Station</title>
<path fill="none" stroke="black" d="M409.5,-109.75C409.5,-102.8 409.5,-92.85 409.5,-84.13"/>
<polygon fill="black" stroke="black" points="413,-84.09 409.5,-74.09 406,-84.09 413,-84.09"/>
</g>
</g>
</svg>
