<?xml version="1.0" encoding="UTF-8" standalone="no"?>
<!DOCTYPE svg PUBLIC "-//W3C//DTD SVG 1.1//EN"
 "http://www.w3.org/Graphics/SVG/1.1/DTD/svg11.dtd">
<!-- Generated by graphviz version 2.43.0 (0)
 -->
<!-- Title: opp Pages: 1 -->
<svg width="240pt" height="137pt"
 viewBox="0.00 0.00 240.00 137.00" xmlns="http://www.w3.org/2000/svg" xmlns:xlink="http://www.w3.org/1999/xlink">
<g id="graph0" class="graph" transform="scale(1 1) rotate(0) translate(4 133)">
<title>opp</title>
<polygon fill="transparent" stroke="transparent" points="-4,4 -4,-133 236,-133 236,4 -4,4"/>
<!-- Sat_Dsl_Phy -->
<g id="node1" class="node">
<title>Sat_Dsl_Phy</title>
<g id="a_node1"><a xlink:href="Nodes._20_Satellite.DSL._10_Physical.Sat_Dsl_Phy.html" xlink:title="Compound Module Sat_Dsl_Phy" target="_parent">
<polygon fill="#fff700" stroke="black" points="140.5,-74 63.5,-74 63.5,-55 140.5,-55 140.5,-74"/>
<text text-anchor="middle" x="102" y="-62" font-family="Helvetica,sans-Serif" font-size="10.00">Sat_Dsl_Phy</text>
</a>
</g>
</g>
<!-- IdealChannel -->
<g id="node2" class="node">
<title>IdealChannel</title>
<g id="a_node2"><a xlink:href="ned.IdealChannel.html" xlink:title="Channel IdealChannel" target="_parent">
<polygon fill="#d0ffd0" stroke="black" points="80,-19 0,-19 0,0 80,0 80,-19"/>
<text text-anchor="middle" x="40" y="-7" font-family="Helvetica,sans-Serif" font-size="10.00">IdealChannel</text>
</a>
</g>
</g>
<!-- Sat_Dsl_Phy&#45;&gt;IdealChannel -->
<g id="edge1" class="edge">
<title>Sat_Dsl_Phy&#45;&gt;IdealChannel</title>
<path fill="none" stroke="black" d="M92.04,-54.98C82.87,-47.15 69.06,-35.34 57.97,-25.86"/>
<polygon fill="black" stroke="black" points="60.02,-23.01 50.14,-19.17 55.47,-28.33 60.02,-23.01"/>
</g>
<!-- Sat_Dsl_Phy_LoRaRadio -->
<g id="node3" class="node">
<title>Sat_Dsl_Phy_LoRaRadio</title>
<g id="a_node3"><a xlink:href="Nodes._20_Satellite.DSL._10_Physical.Sat_Dsl_Phy_LoRaRadio.html" xlink:title="Compound Module Sat_Dsl_Phy_LoRaRadio" target="_parent">
<polygon fill="#fffcaf" stroke="black" points="232,-19 98,-19 98,0 232,0 232,-19"/>
<text text-anchor="middle" x="165" y="-7" font-family="Helvetica,sans-Serif" font-size="10.00">Sat_Dsl_Phy_LoRaRadio</text>
</a>
</g>
</g>
<!-- Sat_Dsl_Phy&#45;&gt;Sat_Dsl_Phy_LoRaRadio -->
<g id="edge2" class="edge">
<title>Sat_Dsl_Phy&#45;&gt;Sat_Dsl_Phy_LoRaRadio</title>
<path fill="none" stroke="black" d="M112.12,-54.98C121.44,-47.15 135.47,-35.34 146.74,-25.86"/>
<polygon fill="black" stroke="black" points="149.29,-28.29 154.69,-19.17 144.79,-22.93 149.29,-28.29"/>
</g>
<!-- Satellite -->
<g id="node4" class="node">
<title>Satellite</title>
<g id="a_node4"><a xlink:href="Nodes._20_Satellite.Satellite.html" xlink:title="Compound Module Satellite" target="_parent">
<polygon fill="#fffcaf" stroke="black" points="130.5,-129 73.5,-129 73.5,-110 130.5,-110 130.5,-129"/>
<text text-anchor="middle" x="102" y="-117" font-family="Helvetica,sans-Serif" font-size="10.00">Satellite</text>
</a>
</g>
</g>
<!-- Satellite&#45;&gt;Sat_Dsl_Phy -->
<g id="edge3" class="edge">
<title>Satellite&#45;&gt;Sat_Dsl_Phy</title>
<path fill="none" stroke="black" d="M102,-109.75C102,-102.8 102,-92.85 102,-84.13"/>
<polygon fill="black" stroke="black" points="105.5,-84.09 102,-74.09 98.5,-84.09 105.5,-84.09"/>
</g>
</g>
</svg>
