<?xml version="1.0" encoding="UTF-8" standalone="no"?>
<!DOCTYPE svg PUBLIC "-//W3C//DTD SVG 1.1//EN"
 "http://www.w3.org/Graphics/SVG/1.1/DTD/svg11.dtd">
<!-- Generated by graphviz version 2.43.0 (0)
 -->
<!-- Title: opp Pages: 1 -->
<svg width="848pt" height="82pt"
 viewBox="0.00 0.00 848.00 82.00" xmlns="http://www.w3.org/2000/svg" xmlns:xlink="http://www.w3.org/1999/xlink">
<g id="graph0" class="graph" transform="scale(1 1) rotate(0) translate(4 78)">
<title>opp</title>
<polygon fill="transparent" stroke="transparent" points="-4,4 -4,-78 844,-78 844,4 -4,4"/>
<!-- Server -->
<g id="node1" class="node">
<title>Server</title>
<g id="a_node1"><a xlink:href="Nodes._40_Server.Server.html" xlink:title="Compound Module Server" target="_parent">
<polygon fill="#fff700" stroke="black" points="442,-74 388,-74 388,-55 442,-55 442,-74"/>
<text text-anchor="middle" x="415" y="-62" font-family="Helvetica,sans-Serif" font-size="10.00">Server</text>
</a>
</g>
</g>
<!-- ServerMobility -->
<g id="node2" class="node">
<title>ServerMobility</title>
<g id="a_node2"><a xlink:href="Nodes._40_Server._60_Mobility.ServerMobility.html" xlink:title="Compound Module ServerMobility" target="_parent">
<polygon fill="#fffcaf" stroke="black" points="88,-19 0,-19 0,0 88,0 88,-19"/>
<text text-anchor="middle" x="44" y="-7" font-family="Helvetica,sans-Serif" font-size="10.00">ServerMobility</text>
</a>
</g>
</g>
<!-- Server&#45;&gt;ServerMobility -->
<g id="edge1" class="edge">
<title>Server&#45;&gt;ServerMobility</title>
<path fill="none" stroke="black" d="M387.75,-59.87C334.3,-52.72 211.71,-36.12 98.14,-19.15"/>
<polygon fill="black" stroke="black" points="98.64,-15.68 88.24,-17.66 97.61,-22.61 98.64,-15.68"/>
</g>
<!-- ServerPhysicalLayer -->
<g id="node3" class="node">
<title>ServerPhysicalLayer</title>
<g id="a_node3"><a xlink:href="Nodes._40_Server._10_Physical.ServerPhysicalLayer.html" xlink:title="Simple Module ServerPhysicalLayer" target="_parent">
<polygon fill="#fffcaf" stroke="black" points="222,-19 106,-19 106,0 222,0 222,-19"/>
<text text-anchor="middle" x="164" y="-7" font-family="Helvetica,sans-Serif" font-size="10.00">ServerPhysicalLayer</text>
</a>
</g>
</g>
<!-- Server&#45;&gt;ServerPhysicalLayer -->
<g id="edge2" class="edge">
<title>Server&#45;&gt;ServerPhysicalLayer</title>
<path fill="none" stroke="black" d="M387.66,-57.73C346.21,-48.97 266.77,-32.2 214.59,-21.18"/>
<polygon fill="black" stroke="black" points="215.04,-17.7 204.53,-19.06 213.59,-24.55 215.04,-17.7"/>
</g>
<!-- ServerNetworkLayer -->
<g id="node4" class="node">
<title>ServerNetworkLayer</title>
<g id="a_node4"><a xlink:href="Nodes._40_Server._30_Network.ServerNetworkLayer.html" xlink:title="Simple Module ServerNetworkLayer" target="_parent">
<polygon fill="#fffcaf" stroke="black" points="356,-19 240,-19 240,0 356,0 356,-19"/>
<text text-anchor="middle" x="298" y="-7" font-family="Helvetica,sans-Serif" font-size="10.00">ServerNetworkLayer</text>
</a>
</g>
</g>
<!-- Server&#45;&gt;ServerNetworkLayer -->
<g id="edge3" class="edge">
<title>Server&#45;&gt;ServerNetworkLayer</title>
<path fill="none" stroke="black" d="M396.2,-54.98C377.38,-46.46 348.18,-33.23 326.5,-23.41"/>
<polygon fill="black" stroke="black" points="327.69,-20.11 317.14,-19.17 324.8,-26.48 327.69,-20.11"/>
</g>
<!-- ServerEnergy -->
<g id="node5" class="node">
<title>ServerEnergy</title>
<g id="a_node5"><a xlink:href="Nodes._40_Server._50_Energy.ServerEnergy.html" xlink:title="Compound Module ServerEnergy" target="_parent">
<polygon fill="#fffcaf" stroke="black" points="456,-19 374,-19 374,0 456,0 456,-19"/>
<text text-anchor="middle" x="415" y="-7" font-family="Helvetica,sans-Serif" font-size="10.00">ServerEnergy</text>
</a>
</g>
</g>
<!-- Server&#45;&gt;ServerEnergy -->
<g id="edge4" class="edge">
<title>Server&#45;&gt;ServerEnergy</title>
<path fill="none" stroke="black" d="M415,-54.75C415,-47.8 415,-37.85 415,-29.13"/>
<polygon fill="black" stroke="black" points="418.5,-29.09 415,-19.09 411.5,-29.09 418.5,-29.09"/>
</g>
<!-- IdealChannel -->
<g id="node6" class="node">
<title>IdealChannel</title>
<g id="a_node6"><a xlink:href="ned.IdealChannel.html" xlink:title="Channel IdealChannel" target="_parent">
<polygon fill="#d0ffd0" stroke="black" points="554,-19 474,-19 474,0 554,0 554,-19"/>
<text text-anchor="middle" x="514" y="-7" font-family="Helvetica,sans-Serif" font-size="10.00">IdealChannel</text>
</a>
</g>
</g>
<!-- Server&#45;&gt;IdealChannel -->
<g id="edge5" class="edge">
<title>Server&#45;&gt;IdealChannel</title>
<path fill="none" stroke="black" d="M430.91,-54.98C446.55,-46.61 470.66,-33.7 488.88,-23.95"/>
<polygon fill="black" stroke="black" points="490.64,-26.98 497.8,-19.17 487.34,-20.8 490.64,-26.98"/>
</g>
<!-- ServerDataLinkLayer -->
<g id="node7" class="node">
<title>ServerDataLinkLayer</title>
<g id="a_node7"><a xlink:href="Nodes._40_Server._20_Data_Link.ServerDataLinkLayer.html" xlink:title="Simple Module ServerDataLinkLayer" target="_parent">
<polygon fill="#fffcaf" stroke="black" points="691.5,-19 572.5,-19 572.5,0 691.5,0 691.5,-19"/>
<text text-anchor="middle" x="632" y="-7" font-family="Helvetica,sans-Serif" font-size="10.00">ServerDataLinkLayer</text>
</a>
</g>
</g>
<!-- Server&#45;&gt;ServerDataLinkLayer -->
<g id="edge6" class="edge">
<title>Server&#45;&gt;ServerDataLinkLayer</title>
<path fill="none" stroke="black" d="M442.04,-56.89C478.41,-48.01 543.54,-32.11 587.26,-21.43"/>
<polygon fill="black" stroke="black" points="588.18,-24.8 597.07,-19.03 586.52,-18 588.18,-24.8"/>
</g>
<!-- ServerApplicationLayer -->
<g id="node8" class="node">
<title>ServerApplicationLayer</title>
<g id="a_node8"><a xlink:href="Nodes._40_Server._40_Application.ServerApplicationLayer.html" xlink:title="Simple Module ServerApplicationLayer" target="_parent">
<polygon fill="#fffcaf" stroke="black" points="840,-19 710,-19 710,0 840,0 840,-19"/>
<text text-anchor="middle" x="775" y="-7" font-family="Helvetica,sans-Serif" font-size="10.00">ServerApplicationLayer</text>
</a>
</g>
</g>
<!-- Server&#45;&gt;ServerApplicationLayer -->
<g id="edge7" class="edge">
<title>Server&#45;&gt;ServerApplicationLayer</title>
<path fill="none" stroke="black" d="M442.06,-59.52C497.81,-51.31 626.93,-32.3 707,-20.51"/>
<polygon fill="black" stroke="black" points="707.61,-23.96 716.99,-19.04 706.59,-17.03 707.61,-23.96"/>
</g>
</g>
</svg>
