<?xml version="1.0" encoding="UTF-8" standalone="no"?>
<!DOCTYPE svg PUBLIC "-//W3C//DTD SVG 1.1//EN"
 "http://www.w3.org/Graphics/SVG/1.1/DTD/svg11.dtd">
<!-- Generated by graphviz version 2.43.0 (0)
 -->
<!-- Title: opp Pages: 1 -->
<svg width="1148pt" height="137pt"
 viewBox="0.00 0.00 1147.50 137.00" xmlns="http://www.w3.org/2000/svg" xmlns:xlink="http://www.w3.org/1999/xlink">
<g id="graph0" class="graph" transform="scale(1 1) rotate(0) translate(4 133)">
<title>opp</title>
<polygon fill="transparent" stroke="transparent" points="-4,4 -4,-133 1143.5,-133 1143.5,4 -4,4"/>
<!-- Satellite -->
<g id="node1" class="node">
<title>Satellite</title>
<g id="a_node1"><a xlink:href="Nodes._20_Satellite.Satellite.html" xlink:title="Compound Module Satellite" target="_parent">
<polygon fill="#fff700" stroke="black" points="641,-74 584,-74 584,-55 641,-55 641,-74"/>
<text text-anchor="middle" x="612.5" y="-62" font-family="Helvetica,sans-Serif" font-size="10.00">Satellite</text>
</a>
</g>
</g>
<!-- Sat_Dsl_Dlk -->
<g id="node2" class="node">
<title>Sat_Dsl_Dlk</title>
<g id="a_node2"><a xlink:href="Nodes._20_Satellite.DSL._20_Data_Link.Sat_Dsl_Dlk.html" xlink:title="Compound Module Sat_Dsl_Dlk" target="_parent">
<polygon fill="#fffcaf" stroke="black" points="75,-19 0,-19 0,0 75,0 75,-19"/>
<text text-anchor="middle" x="37.5" y="-7" font-family="Helvetica,sans-Serif" font-size="10.00">Sat_Dsl_Dlk</text>
</a>
</g>
</g>
<!-- Satellite&#45;&gt;Sat_Dsl_Dlk -->
<g id="edge1" class="edge">
<title>Satellite&#45;&gt;Sat_Dsl_Dlk</title>
<path fill="none" stroke="black" d="M583.78,-62.04C505.52,-57.86 281.79,-44.54 85.1,-18.94"/>
<polygon fill="black" stroke="black" points="85.53,-15.47 75.16,-17.64 84.62,-22.41 85.53,-15.47"/>
</g>
<!-- Sat_Mob_SatelliteMobility -->
<g id="node3" class="node">
<title>Sat_Mob_SatelliteMobility</title>
<g id="a_node3"><a xlink:href="Nodes._20_Satellite._60_Mobility.Sat_Mob_SatelliteMobility.html" xlink:title="Simple Module Sat_Mob_SatelliteMobility" target="_parent">
<polygon fill="#fffcaf" stroke="black" points="237.5,-19 93.5,-19 93.5,0 237.5,0 237.5,-19"/>
<text text-anchor="middle" x="165.5" y="-7" font-family="Helvetica,sans-Serif" font-size="10.00">Sat_Mob_SatelliteMobility</text>
</a>
</g>
</g>
<!-- Satellite&#45;&gt;Sat_Mob_SatelliteMobility -->
<g id="edge2" class="edge">
<title>Satellite&#45;&gt;Sat_Mob_SatelliteMobility</title>
<path fill="none" stroke="black" d="M583.86,-60.1C517.17,-52.2 349.46,-32.31 247.79,-20.26"/>
<polygon fill="black" stroke="black" points="247.9,-16.75 237.55,-19.04 247.07,-23.7 247.9,-16.75"/>
</g>
<!-- Sat_Isl_Dlk -->
<g id="node4" class="node">
<title>Sat_Isl_Dlk</title>
<g id="a_node4"><a xlink:href="Nodes._20_Satellite.ISL._20_Data_Link.Sat_Isl_Dlk.html" xlink:title="Simple Module Sat_Isl_Dlk" target="_parent">
<polygon fill="#fffcaf" stroke="black" points="327,-19 256,-19 256,0 327,0 327,-19"/>
<text text-anchor="middle" x="291.5" y="-7" font-family="Helvetica,sans-Serif" font-size="10.00">Sat_Isl_Dlk</text>
</a>
</g>
</g>
<!-- Satellite&#45;&gt;Sat_Isl_Dlk -->
<g id="edge3" class="edge">
<title>Satellite&#45;&gt;Sat_Isl_Dlk</title>
<path fill="none" stroke="black" d="M583.74,-59.19C535.03,-51.81 432.98,-36.08 336.9,-19.2"/>
<polygon fill="black" stroke="black" points="337.48,-15.75 327.02,-17.46 336.26,-22.65 337.48,-15.75"/>
</g>
<!-- Sat_Gsl_Phy -->
<g id="node5" class="node">
<title>Sat_Gsl_Phy</title>
<g id="a_node5"><a xlink:href="Nodes._20_Satellite.GSL._10_Physical.Sat_Gsl_Phy.html" xlink:title="Compound Module Sat_Gsl_Phy" target="_parent">
<polygon fill="#fffcaf" stroke="black" points="422,-19 345,-19 345,0 422,0 422,-19"/>
<text text-anchor="middle" x="383.5" y="-7" font-family="Helvetica,sans-Serif" font-size="10.00">Sat_Gsl_Phy</text>
</a>
</g>
</g>
<!-- Satellite&#45;&gt;Sat_Gsl_Phy -->
<g id="edge4" class="edge">
<title>Satellite&#45;&gt;Sat_Gsl_Phy</title>
<path fill="none" stroke="black" d="M583.96,-56.89C545.42,-47.98 476.27,-31.97 430.13,-21.29"/>
<polygon fill="black" stroke="black" points="430.9,-17.88 420.37,-19.03 429.32,-24.7 430.9,-17.88"/>
</g>
<!-- Sat_Dsl_Phy -->
<g id="node6" class="node">
<title>Sat_Dsl_Phy</title>
<g id="a_node6"><a xlink:href="Nodes._20_Satellite.DSL._10_Physical.Sat_Dsl_Phy.html" xlink:title="Compound Module Sat_Dsl_Phy" target="_parent">
<polygon fill="#fffcaf" stroke="black" points="517,-19 440,-19 440,0 517,0 517,-19"/>
<text text-anchor="middle" x="478.5" y="-7" font-family="Helvetica,sans-Serif" font-size="10.00">Sat_Dsl_Phy</text>
</a>
</g>
</g>
<!-- Satellite&#45;&gt;Sat_Dsl_Phy -->
<g id="edge5" class="edge">
<title>Satellite&#45;&gt;Sat_Dsl_Phy</title>
<path fill="none" stroke="black" d="M590.97,-54.98C569.03,-46.3 534.76,-32.75 509.81,-22.88"/>
<polygon fill="black" stroke="black" points="511.01,-19.59 500.42,-19.17 508.43,-26.1 511.01,-19.59"/>
</g>
<!-- Sat_Isl_Phy -->
<g id="node7" class="node">
<title>Sat_Isl_Phy</title>
<g id="a_node7"><a xlink:href="Nodes._20_Satellite.ISL._10_Physical.Sat_Isl_Phy.html" xlink:title="Compound Module Sat_Isl_Phy" target="_parent">
<polygon fill="#fffcaf" stroke="black" points="607.5,-19 535.5,-19 535.5,0 607.5,0 607.5,-19"/>
<text text-anchor="middle" x="571.5" y="-7" font-family="Helvetica,sans-Serif" font-size="10.00">Sat_Isl_Phy</text>
</a>
</g>
</g>
<!-- Satellite&#45;&gt;Sat_Isl_Phy -->
<g id="edge6" class="edge">
<title>Satellite&#45;&gt;Sat_Isl_Phy</title>
<path fill="none" stroke="black" d="M605.73,-54.75C599.94,-47.26 591.44,-36.28 584.36,-27.13"/>
<polygon fill="black" stroke="black" points="587.03,-24.86 578.14,-19.09 581.49,-29.14 587.03,-24.86"/>
</g>
<!-- Sat_App -->
<g id="node8" class="node">
<title>Sat_App</title>
<g id="a_node8"><a xlink:href="Nodes._20_Satellite._40_Application.Sat_App.html" xlink:title="Simple Module Sat_App" target="_parent">
<polygon fill="#fffcaf" stroke="black" points="681.5,-19 625.5,-19 625.5,0 681.5,0 681.5,-19"/>
<text text-anchor="middle" x="653.5" y="-7" font-family="Helvetica,sans-Serif" font-size="10.00">Sat_App</text>
</a>
</g>
</g>
<!-- Satellite&#45;&gt;Sat_App -->
<g id="edge7" class="edge">
<title>Satellite&#45;&gt;Sat_App</title>
<path fill="none" stroke="black" d="M619.27,-54.75C625.06,-47.26 633.56,-36.28 640.64,-27.13"/>
<polygon fill="black" stroke="black" points="643.51,-29.14 646.86,-19.09 637.97,-24.86 643.51,-29.14"/>
</g>
<!-- Sat_Net -->
<g id="node9" class="node">
<title>Sat_Net</title>
<g id="a_node9"><a xlink:href="Nodes._20_Satellite._30_Network.Sat_Net.html" xlink:title="Compound Module Sat_Net" target="_parent">
<polygon fill="#fffcaf" stroke="black" points="755,-19 700,-19 700,0 755,0 755,-19"/>
<text text-anchor="middle" x="727.5" y="-7" font-family="Helvetica,sans-Serif" font-size="10.00">Sat_Net</text>
</a>
</g>
</g>
<!-- Satellite&#45;&gt;Sat_Net -->
<g id="edge8" class="edge">
<title>Satellite&#45;&gt;Sat_Net</title>
<path fill="none" stroke="black" d="M630.98,-54.98C649.48,-46.46 678.18,-33.23 699.48,-23.41"/>
<polygon fill="black" stroke="black" points="701.07,-26.53 708.69,-19.17 698.14,-20.18 701.07,-26.53"/>
</g>
<!-- Sat_Ene -->
<g id="node10" class="node">
<title>Sat_Ene</title>
<g id="a_node10"><a xlink:href="Nodes._20_Satellite._50_Energy.Sat_Ene.html" xlink:title="Compound Module Sat_Ene" target="_parent">
<polygon fill="#fffcaf" stroke="black" points="829.5,-19 773.5,-19 773.5,0 829.5,0 829.5,-19"/>
<text text-anchor="middle" x="801.5" y="-7" font-family="Helvetica,sans-Serif" font-size="10.00">Sat_Ene</text>
</a>
</g>
</g>
<!-- Satellite&#45;&gt;Sat_Ene -->
<g id="edge9" class="edge">
<title>Satellite&#45;&gt;Sat_Ene</title>
<path fill="none" stroke="black" d="M641.21,-55.45C673.96,-46.27 727.65,-31.21 763.76,-21.08"/>
<polygon fill="black" stroke="black" points="764.77,-24.44 773.45,-18.37 762.88,-17.7 764.77,-24.44"/>
</g>
<!-- IdealChannel -->
<g id="node11" class="node">
<title>IdealChannel</title>
<g id="a_node11"><a xlink:href="ned.IdealChannel.html" xlink:title="Channel IdealChannel" target="_parent">
<polygon fill="#d0ffd0" stroke="black" points="927.5,-19 847.5,-19 847.5,0 927.5,0 927.5,-19"/>
<text text-anchor="middle" x="887.5" y="-7" font-family="Helvetica,sans-Serif" font-size="10.00">IdealChannel</text>
</a>
</g>
</g>
<!-- Satellite&#45;&gt;IdealChannel -->
<g id="edge10" class="edge">
<title>Satellite&#45;&gt;IdealChannel</title>
<path fill="none" stroke="black" d="M641.15,-57.98C687.61,-49.02 779.96,-31.23 837.45,-20.15"/>
<polygon fill="black" stroke="black" points="838.26,-23.56 847.41,-18.23 836.93,-16.68 838.26,-23.56"/>
</g>
<!-- Sat_Gsl_Dlk -->
<g id="node12" class="node">
<title>Sat_Gsl_Dlk</title>
<g id="a_node12"><a xlink:href="Nodes._20_Satellite.GSL._20_Data_Link.Sat_Gsl_Dlk.html" xlink:title="Simple Module Sat_Gsl_Dlk" target="_parent">
<polygon fill="#fffcaf" stroke="black" points="1021,-19 946,-19 946,0 1021,0 1021,-19"/>
<text text-anchor="middle" x="983.5" y="-7" font-family="Helvetica,sans-Serif" font-size="10.00">Sat_Gsl_Dlk</text>
</a>
</g>
</g>
<!-- Satellite&#45;&gt;Sat_Gsl_Dlk -->
<g id="edge11" class="edge">
<title>Satellite&#45;&gt;Sat_Gsl_Dlk</title>
<path fill="none" stroke="black" d="M641.17,-59.98C696.14,-53.13 820.41,-37.23 935.75,-19.06"/>
<polygon fill="black" stroke="black" points="936.49,-22.48 945.81,-17.46 935.39,-15.57 936.49,-22.48"/>
</g>
<!-- Sat_Mob_NoradA -->
<g id="node13" class="node">
<title>Sat_Mob_NoradA</title>
<g id="a_node13"><a xlink:href="Nodes._20_Satellite._60_Mobility.Sat_Mob_NoradA.html" xlink:title="Simple Module Sat_Mob_NoradA" target="_parent">
<polygon fill="#fffcaf" stroke="black" points="1139.5,-19 1039.5,-19 1039.5,0 1139.5,0 1139.5,-19"/>
<text text-anchor="middle" x="1089.5" y="-7" font-family="Helvetica,sans-Serif" font-size="10.00">Sat_Mob_NoradA</text>
</a>
</g>
</g>
<!-- Satellite&#45;&gt;Sat_Mob_NoradA -->
<g id="edge12" class="edge">
<title>Satellite&#45;&gt;Sat_Mob_NoradA</title>
<path fill="none" stroke="black" d="M641.18,-60.82C707.51,-54.53 876.92,-38.02 1029.29,-19.11"/>
<polygon fill="black" stroke="black" points="1029.82,-22.57 1039.31,-17.86 1028.95,-15.63 1029.82,-22.57"/>
</g>
<!-- Florasat -->
<g id="node14" class="node">
<title>Florasat</title>
<g id="a_node14"><a xlink:href="Florasat.Florasat.html" xlink:title="Network Florasat" target="_parent">
<polygon fill="#d0d0ff" stroke="black" points="640.5,-129 584.5,-129 584.5,-110 640.5,-110 640.5,-129"/>
<text text-anchor="middle" x="612.5" y="-117" font-family="Helvetica,sans-Serif" font-size="10.00">Florasat</text>
</a>
</g>
</g>
<!-- Florasat&#45;&gt;Satellite -->
<g id="edge13" class="edge">
<title>Florasat&#45;&gt;Satellite</title>
<path fill="none" stroke="black" d="M612.5,-109.75C612.5,-102.8 612.5,-92.85 612.5,-84.13"/>
<polygon fill="black" stroke="black" points="616,-84.09 612.5,-74.09 609,-84.09 616,-84.09"/>
</g>
</g>
</svg>
