<?xml version="1.0" encoding="UTF-8" standalone="no"?>
<!DOCTYPE svg PUBLIC "-//W3C//DTD SVG 1.1//EN"
 "http://www.w3.org/Graphics/SVG/1.1/DTD/svg11.dtd">
<!-- Generated by graphviz version 2.43.0 (0)
 -->
<!-- Title: opp Pages: 1 -->
<svg width="92pt" height="137pt"
 viewBox="0.00 0.00 92.00 137.00" xmlns="http://www.w3.org/2000/svg" xmlns:xlink="http://www.w3.org/1999/xlink">
<g id="graph0" class="graph" transform="scale(1 1) rotate(0) translate(4 133)">
<title>opp</title>
<polygon fill="transparent" stroke="transparent" points="-4,4 -4,-133 88,-133 88,4 -4,4"/>
<!-- Ter_Dlk_kMac -->
<g id="node1" class="node">
<title>Ter_Dlk_kMac</title>
<g id="a_node1"><a xlink:href="Nodes._10_Terminal._20_Data_Link.Ter_Dlk_kMac.html" xlink:title="Compound Module Ter_Dlk_kMac" target="_parent">
<polygon fill="#fff700" stroke="black" points="84,-74 0,-74 0,-55 84,-55 84,-74"/>
<text text-anchor="middle" x="42" y="-62" font-family="Helvetica,sans-Serif" font-size="10.00">Ter_Dlk_kMac</text>
</a>
</g>
</g>
<!-- IPacketQueue -->
<g id="node2" class="node">
<title>IPacketQueue</title>
<g id="a_node2"><a xlink:href="../../../inet4.3/doc/neddoc/inet.queueing.contract.IPacketQueue.html" xlink:title="Module Interface IPacketQueue" target="_parent">
<polygon fill="#fffcaf" stroke="black" stroke-dasharray="5,2" points="83.5,-19 0.5,-19 0.5,0 83.5,0 83.5,-19"/>
<text text-anchor="middle" x="42" y="-7" font-family="Helvetica,sans-Serif" font-size="10.00">IPacketQueue</text>
</a>
</g>
</g>
<!-- Ter_Dlk_kMac&#45;&gt;IPacketQueue -->
<g id="edge1" class="edge">
<title>Ter_Dlk_kMac&#45;&gt;IPacketQueue</title>
<path fill="none" stroke="black" d="M42,-54.75C42,-47.8 42,-37.85 42,-29.13"/>
<polygon fill="black" stroke="black" points="45.5,-29.09 42,-19.09 38.5,-29.09 45.5,-29.09"/>
</g>
<!-- Ter_Dlk -->
<g id="node3" class="node">
<title>Ter_Dlk</title>
<g id="a_node3"><a xlink:href="Nodes._10_Terminal._20_Data_Link.Ter_Dlk.html" xlink:title="Compound Module Ter_Dlk" target="_parent">
<polygon fill="#fffcaf" stroke="black" points="69,-129 15,-129 15,-110 69,-110 69,-129"/>
<text text-anchor="middle" x="42" y="-117" font-family="Helvetica,sans-Serif" font-size="10.00">Ter_Dlk</text>
</a>
</g>
</g>
<!-- Ter_Dlk&#45;&gt;Ter_Dlk_kMac -->
<g id="edge2" class="edge">
<title>Ter_Dlk&#45;&gt;Ter_Dlk_kMac</title>
<path fill="none" stroke="black" d="M42,-109.75C42,-102.8 42,-92.85 42,-84.13"/>
<polygon fill="black" stroke="black" points="45.5,-84.09 42,-74.09 38.5,-84.09 45.5,-84.09"/>
</g>
</g>
</svg>
