<?xml version="1.0" encoding="UTF-8" standalone="no"?>
<!DOCTYPE svg PUBLIC "-//W3C//DTD SVG 1.1//EN"
 "http://www.w3.org/Graphics/SVG/1.1/DTD/svg11.dtd">
<!-- Generated by graphviz version 2.43.0 (0)
 -->
<!-- Title: opp Pages: 1 -->
<svg width="114pt" height="137pt"
 viewBox="0.00 0.00 114.00 137.00" xmlns="http://www.w3.org/2000/svg" xmlns:xlink="http://www.w3.org/1999/xlink">
<g id="graph0" class="graph" transform="scale(1 1) rotate(0) translate(4 133)">
<title>opp</title>
<polygon fill="transparent" stroke="transparent" points="-4,4 -4,-133 110,-133 110,4 -4,4"/>
<!-- Ter_Net -->
<g id="node1" class="node">
<title>Ter_Net</title>
<g id="a_node1"><a xlink:href="Nodes._10_Terminal._30_Network.Ter_Net.html" xlink:title="Compound Module Ter_Net" target="_parent">
<polygon fill="#fff700" stroke="black" points="80,-74 26,-74 26,-55 80,-55 80,-74"/>
<text text-anchor="middle" x="53" y="-62" font-family="Helvetica,sans-Serif" font-size="10.00">Ter_Net</text>
</a>
</g>
</g>
<!-- Ter_Base_IRouting -->
<g id="node2" class="node">
<title>Ter_Base_IRouting</title>
<g id="a_node2"><a xlink:href="Global.Base._30_Network.Ter_Base_IRouting.html" xlink:title="Module Interface Ter_Base_IRouting" target="_parent">
<polygon fill="#fffcaf" stroke="black" stroke-dasharray="5,2" points="106,-19 0,-19 0,0 106,0 106,-19"/>
<text text-anchor="middle" x="53" y="-7" font-family="Helvetica,sans-Serif" font-size="10.00">Ter_Base_IRouting</text>
</a>
</g>
</g>
<!-- Ter_Net&#45;&gt;Ter_Base_IRouting -->
<g id="edge1" class="edge">
<title>Ter_Net&#45;&gt;Ter_Base_IRouting</title>
<path fill="none" stroke="black" d="M53,-54.75C53,-47.8 53,-37.85 53,-29.13"/>
<polygon fill="black" stroke="black" points="56.5,-29.09 53,-19.09 49.5,-29.09 56.5,-29.09"/>
</g>
<!-- Terminal -->
<g id="node3" class="node">
<title>Terminal</title>
<g id="a_node3"><a xlink:href="Nodes._10_Terminal.Terminal.html" xlink:title="Compound Module Terminal" target="_parent">
<polygon fill="#fffcaf" stroke="black" points="82.5,-129 23.5,-129 23.5,-110 82.5,-110 82.5,-129"/>
<text text-anchor="middle" x="53" y="-117" font-family="Helvetica,sans-Serif" font-size="10.00">Terminal</text>
</a>
</g>
</g>
<!-- Terminal&#45;&gt;Ter_Net -->
<g id="edge2" class="edge">
<title>Terminal&#45;&gt;Ter_Net</title>
<path fill="none" stroke="black" d="M53,-109.75C53,-102.8 53,-92.85 53,-84.13"/>
<polygon fill="black" stroke="black" points="56.5,-84.09 53,-74.09 49.5,-84.09 56.5,-84.09"/>
</g>
</g>
</svg>
