<?xml version="1.0" encoding="UTF-8" standalone="no"?>
<!DOCTYPE svg PUBLIC "-//W3C//DTD SVG 1.1//EN"
 "http://www.w3.org/Graphics/SVG/1.1/DTD/svg11.dtd">
<!-- Generated by graphviz version 2.43.0 (0)
 -->
<!-- Title: opp Pages: 1 -->
<svg width="222pt" height="82pt"
 viewBox="0.00 0.00 222.00 82.00" xmlns="http://www.w3.org/2000/svg" xmlns:xlink="http://www.w3.org/1999/xlink">
<g id="graph0" class="graph" transform="scale(1 1) rotate(0) translate(4 78)">
<title>opp</title>
<polygon fill="transparent" stroke="transparent" points="-4,4 -4,-78 218,-78 218,4 -4,4"/>
<!-- ISLInterface -->
<g id="node1" class="node">
<title>ISLInterface</title>
<g id="a_node1"><a xlink:href="Nodes._20_Satellite.ISL._10_Physical.ISLInterface.html" xlink:title="Simple Module ISLInterface" target="_parent">
<polygon fill="#fff700" stroke="black" points="141.5,-19 67.5,-19 67.5,0 141.5,0 141.5,-19"/>
<text text-anchor="middle" x="104.5" y="-7" font-family="Helvetica,sans-Serif" font-size="10.00">ISLInterface</text>
</a>
</g>
</g>
<!-- PacketSinkBase -->
<g id="node2" class="node">
<title>PacketSinkBase</title>
<g id="a_node2"><a xlink:href="../../../inet4.3/doc/neddoc/inet.queueing.base.PacketSinkBase.html" xlink:title="Simple Module PacketSinkBase" target="_parent">
<polygon fill="#fffcaf" stroke="black" points="93,-74 0,-74 0,-55 93,-55 93,-74"/>
<text text-anchor="middle" x="46.5" y="-62" font-family="Helvetica,sans-Serif" font-size="10.00">PacketSinkBase</text>
</a>
</g>
</g>
<!-- PacketSinkBase&#45;&gt;ISLInterface -->
<g id="edge1" class="edge">
<title>PacketSinkBase&#45;&gt;ISLInterface</title>
<path fill="none" stroke="black" d="M55.82,-54.98C66.58,-45.15 84.18,-29.07 95.01,-19.17"/>
</g>
<!-- IActivePacketSink -->
<g id="node3" class="node">
<title>IActivePacketSink</title>
<g id="a_node3"><a xlink:href="../../../inet4.3/doc/neddoc/inet.queueing.contract.IActivePacketSink.html" xlink:title="Module Interface IActivePacketSink" target="_parent">
<polygon fill="#fffcaf" stroke="black" stroke-dasharray="5,2" points="214,-74 111,-74 111,-55 214,-55 214,-74"/>
<text text-anchor="middle" x="162.5" y="-62" font-family="Helvetica,sans-Serif" font-size="10.00">IActivePacketSink</text>
</a>
</g>
</g>
<!-- IActivePacketSink&#45;&gt;ISLInterface -->
<g id="edge2" class="edge">
<title>IActivePacketSink&#45;&gt;ISLInterface</title>
<path fill="none" stroke="black" stroke-dasharray="5,2" d="M153.18,-54.98C142.42,-45.15 124.82,-29.07 113.99,-19.17"/>
</g>
</g>
</svg>
