<?xml version="1.0" encoding="UTF-8" standalone="no"?>
<!DOCTYPE svg PUBLIC "-//W3C//DTD SVG 1.1//EN"
 "http://www.w3.org/Graphics/SVG/1.1/DTD/svg11.dtd">
<!-- Generated by graphviz version 2.43.0 (0)
 -->
<!-- Title: opp Pages: 1 -->
<svg width="190pt" height="137pt"
 viewBox="0.00 0.00 190.00 137.00" xmlns="http://www.w3.org/2000/svg" xmlns:xlink="http://www.w3.org/1999/xlink">
<g id="graph0" class="graph" transform="scale(1 1) rotate(0) translate(4 133)">
<title>opp</title>
<polygon fill="transparent" stroke="transparent" points="-4,4 -4,-133 186,-133 186,4 -4,4"/>
<!-- Ter_Dlk -->
<g id="node1" class="node">
<title>Ter_Dlk</title>
<g id="a_node1"><a xlink:href="Nodes._10_Terminal._20_Data_Link.Ter_Dlk.html" xlink:title="Compound Module Ter_Dlk" target="_parent">
<polygon fill="#fff700" stroke="black" points="119,-74 65,-74 65,-55 119,-55 119,-74"/>
<text text-anchor="middle" x="92" y="-62" font-family="Helvetica,sans-Serif" font-size="10.00">Ter_Dlk</text>
</a>
</g>
</g>
<!-- Ter_Dlk_kMac -->
<g id="node2" class="node">
<title>Ter_Dlk_kMac</title>
<g id="a_node2"><a xlink:href="Nodes._10_Terminal._20_Data_Link.Ter_Dlk_kMac.html" xlink:title="Compound Module Ter_Dlk_kMac" target="_parent">
<polygon fill="#fffcaf" stroke="black" points="84,-19 0,-19 0,0 84,0 84,-19"/>
<text text-anchor="middle" x="42" y="-7" font-family="Helvetica,sans-Serif" font-size="10.00">Ter_Dlk_kMac</text>
</a>
</g>
</g>
<!-- Ter_Dlk&#45;&gt;Ter_Dlk_kMac -->
<g id="edge1" class="edge">
<title>Ter_Dlk&#45;&gt;Ter_Dlk_kMac</title>
<path fill="none" stroke="black" d="M83.74,-54.75C76.54,-47.11 65.89,-35.82 57.15,-26.56"/>
<polygon fill="black" stroke="black" points="59.51,-23.96 50.1,-19.09 54.42,-28.76 59.51,-23.96"/>
</g>
<!-- IdealChannel -->
<g id="node3" class="node">
<title>IdealChannel</title>
<g id="a_node3"><a xlink:href="ned.IdealChannel.html" xlink:title="Channel IdealChannel" target="_parent">
<polygon fill="#d0ffd0" stroke="black" points="182,-19 102,-19 102,0 182,0 182,-19"/>
<text text-anchor="middle" x="142" y="-7" font-family="Helvetica,sans-Serif" font-size="10.00">IdealChannel</text>
</a>
</g>
</g>
<!-- Ter_Dlk&#45;&gt;IdealChannel -->
<g id="edge2" class="edge">
<title>Ter_Dlk&#45;&gt;IdealChannel</title>
<path fill="none" stroke="black" d="M100.26,-54.75C107.46,-47.11 118.11,-35.82 126.85,-26.56"/>
<polygon fill="black" stroke="black" points="129.58,-28.76 133.9,-19.09 124.49,-23.96 129.58,-28.76"/>
</g>
<!-- Terminal -->
<g id="node4" class="node">
<title>Terminal</title>
<g id="a_node4"><a xlink:href="Nodes._10_Terminal.Terminal.html" xlink:title="Compound Module Terminal" target="_parent">
<polygon fill="#fffcaf" stroke="black" points="121.5,-129 62.5,-129 62.5,-110 121.5,-110 121.5,-129"/>
<text text-anchor="middle" x="92" y="-117" font-family="Helvetica,sans-Serif" font-size="10.00">Terminal</text>
</a>
</g>
</g>
<!-- Terminal&#45;&gt;Ter_Dlk -->
<g id="edge3" class="edge">
<title>Terminal&#45;&gt;Ter_Dlk</title>
<path fill="none" stroke="black" d="M92,-109.75C92,-102.8 92,-92.85 92,-84.13"/>
<polygon fill="black" stroke="black" points="95.5,-84.09 92,-74.09 88.5,-84.09 95.5,-84.09"/>
</g>
</g>
</svg>
