<?xml version="1.0" encoding="UTF-8" standalone="no"?>
<!DOCTYPE svg PUBLIC "-//W3C//DTD SVG 1.1//EN"
 "http://www.w3.org/Graphics/SVG/1.1/DTD/svg11.dtd">
<!-- Generated by graphviz version 2.43.0 (0)
 -->
<!-- Title: opp Pages: 1 -->
<svg width="145pt" height="82pt"
 viewBox="0.00 0.00 145.00 82.00" xmlns="http://www.w3.org/2000/svg" xmlns:xlink="http://www.w3.org/1999/xlink">
<g id="graph0" class="graph" transform="scale(1 1) rotate(0) translate(4 78)">
<title>opp</title>
<polygon fill="transparent" stroke="transparent" points="-4,4 -4,-78 141,-78 141,4 -4,4"/>
<!-- LoRaReceptionIndication -->
<g id="node1" class="node">
<title>LoRaReceptionIndication</title>
<g id="a_node1"><a xlink:href="radio-LoRaReceptionIndication.html" xlink:title="Class LoRaReceptionIndication" target="_parent">
<polygon fill="#fff700" stroke="black" points="137,-74 0,-74 0,-55 137,-55 137,-74"/>
<text text-anchor="middle" x="68.5" y="-62" font-family="Helvetica,sans-Serif" font-size="10.00">LoRaReceptionIndication</text>
</a>
</g>
</g>
<!-- W -->
<g id="node2" class="node">
<title>W</title>
<g id="a_node2"><a xlink:href="../../../inet4.3/doc/neddoc/inet-W.html" xlink:title="Class W" target="_parent">
<polygon fill="#fffcaf" stroke="black" points="59.5,-19 5.5,-19 5.5,0 59.5,0 59.5,-19"/>
<text text-anchor="middle" x="32.5" y="-7" font-family="Helvetica,sans-Serif" font-size="10.00">W</text>
</a>
</g>
</g>
<!-- LoRaReceptionIndication&#45;&gt;W -->
<g id="edge1" class="edge">
<title>LoRaReceptionIndication&#45;&gt;W</title>
<path fill="none" stroke="black" d="M62.56,-54.75C57.52,-47.34 50.16,-36.5 43.99,-27.41"/>
<polygon fill="black" stroke="black" points="46.85,-25.39 38.33,-19.09 41.06,-29.33 46.85,-25.39"/>
</g>
<!-- Hz -->
<g id="node3" class="node">
<title>Hz</title>
<g id="a_node3"><a xlink:href="../../../inet4.3/doc/neddoc/inet-Hz.html" xlink:title="Class Hz" target="_parent">
<polygon fill="#fffcaf" stroke="black" points="131.5,-19 77.5,-19 77.5,0 131.5,0 131.5,-19"/>
<text text-anchor="middle" x="104.5" y="-7" font-family="Helvetica,sans-Serif" font-size="10.00">Hz</text>
</a>
</g>
</g>
<!-- LoRaReceptionIndication&#45;&gt;Hz -->
<g id="edge2" class="edge">
<title>LoRaReceptionIndication&#45;&gt;Hz</title>
<path fill="none" stroke="black" d="M74.44,-54.75C79.48,-47.34 86.84,-36.5 93.01,-27.41"/>
<polygon fill="black" stroke="black" points="95.94,-29.33 98.67,-19.09 90.15,-25.39 95.94,-29.33"/>
</g>
</g>
</svg>
