<?xml version="1.0" encoding="UTF-8" standalone="no"?>
<!DOCTYPE svg PUBLIC "-//W3C//DTD SVG 1.1//EN"
 "http://www.w3.org/Graphics/SVG/1.1/DTD/svg11.dtd">
<!-- Generated by graphviz version 2.43.0 (0)
 -->
<!-- Title: opp Pages: 1 -->
<svg width="206pt" height="82pt"
 viewBox="0.00 0.00 206.00 82.00" xmlns="http://www.w3.org/2000/svg" xmlns:xlink="http://www.w3.org/1999/xlink">
<g id="graph0" class="graph" transform="scale(1 1) rotate(0) translate(4 78)">
<title>opp</title>
<polygon fill="transparent" stroke="transparent" points="-4,4 -4,-78 202,-78 202,4 -4,4"/>
<!-- LoRaConfigureRadioCommand -->
<g id="node1" class="node">
<title>LoRaConfigureRadioCommand</title>
<g id="a_node1"><a xlink:href="radio-LoRaConfigureRadioCommand.html" xlink:title="Class LoRaConfigureRadioCommand" target="_parent">
<polygon fill="#fff700" stroke="black" points="181.5,-74 16.5,-74 16.5,-55 181.5,-55 181.5,-74"/>
<text text-anchor="middle" x="99" y="-62" font-family="Helvetica,sans-Serif" font-size="10.00">LoRaConfigureRadioCommand</text>
</a>
</g>
</g>
<!-- W -->
<g id="node2" class="node">
<title>W</title>
<g id="a_node2"><a xlink:href="../../../inet4.3/doc/neddoc/inet-W.html" xlink:title="Class W" target="_parent">
<polygon fill="#fffcaf" stroke="black" points="54,-19 0,-19 0,0 54,0 54,-19"/>
<text text-anchor="middle" x="27" y="-7" font-family="Helvetica,sans-Serif" font-size="10.00">W</text>
</a>
</g>
</g>
<!-- LoRaConfigureRadioCommand&#45;&gt;W -->
<g id="edge1" class="edge">
<title>LoRaConfigureRadioCommand&#45;&gt;W</title>
<path fill="none" stroke="black" d="M87.43,-54.98C76.58,-47 60.12,-34.88 47.12,-25.31"/>
<polygon fill="black" stroke="black" points="48.91,-22.28 38.78,-19.17 44.76,-27.92 48.91,-22.28"/>
</g>
<!-- Hz -->
<g id="node3" class="node">
<title>Hz</title>
<g id="a_node3"><a xlink:href="../../../inet4.3/doc/neddoc/inet-Hz.html" xlink:title="Class Hz" target="_parent">
<polygon fill="#fffcaf" stroke="black" points="126,-19 72,-19 72,0 126,0 126,-19"/>
<text text-anchor="middle" x="99" y="-7" font-family="Helvetica,sans-Serif" font-size="10.00">Hz</text>
</a>
</g>
</g>
<!-- LoRaConfigureRadioCommand&#45;&gt;Hz -->
<g id="edge2" class="edge">
<title>LoRaConfigureRadioCommand&#45;&gt;Hz</title>
<path fill="none" stroke="black" d="M99,-54.75C99,-47.8 99,-37.85 99,-29.13"/>
<polygon fill="black" stroke="black" points="102.5,-29.09 99,-19.09 95.5,-29.09 102.5,-29.09"/>
</g>
<!-- bps -->
<g id="node4" class="node">
<title>bps</title>
<g id="a_node4"><a xlink:href="../../../inet4.3/doc/neddoc/inet-bps.html" xlink:title="Class bps" target="_parent">
<polygon fill="#fffcaf" stroke="black" points="198,-19 144,-19 144,0 198,0 198,-19"/>
<text text-anchor="middle" x="171" y="-7" font-family="Helvetica,sans-Serif" font-size="10.00">bps</text>
</a>
</g>
</g>
<!-- LoRaConfigureRadioCommand&#45;&gt;bps -->
<g id="edge3" class="edge">
<title>LoRaConfigureRadioCommand&#45;&gt;bps</title>
<path fill="none" stroke="black" d="M110.57,-54.98C121.42,-47 137.88,-34.88 150.88,-25.31"/>
<polygon fill="black" stroke="black" points="153.24,-27.92 159.22,-19.17 149.09,-22.28 153.24,-27.92"/>
</g>
</g>
</svg>
